<svg width="13" height="13" viewBox="0 0 13 13" fill="none" xmlns="http://www.w3.org/2000/svg">
    <path fill-rule="evenodd" clip-rule="evenodd" d="M12.3397 6.76603C12.3397 7.16773 12.2988 7.56887 12.2185 7.95988C12.1402 8.34161 12.0242 8.71638 11.8722 9.07464C11.7237 9.42656 11.5395 9.76569 11.3243 10.082C11.1123 10.3962 10.8681 10.6911 10.5998 10.9598C10.3309 11.2274 10.0351 11.471 9.72095 11.6839C9.40364 11.8976 9.06402 12.0815 8.71189 12.2307C8.35312 12.3819 7.97748 12.4977 7.59608 12.5759C7.20455 12.6565 6.80195 12.6976 6.39967 12.6976C5.99709 12.6976 5.59451 12.6565 5.20353 12.5759C4.82155 12.4977 4.44594 12.3819 4.08745 12.2307C3.73534 12.0815 3.39539 11.8976 3.07809 11.6839C2.76398 11.471 2.46813 11.2274 2.19984 10.9598C1.93127 10.6911 1.68704 10.3962 1.47473 10.082C1.26068 9.76569 1.07619 9.42654 0.927122 9.07464C0.775121 8.71638 0.65883 8.34159 0.580225 7.95988C0.50076 7.56887 0.460144 7.16773 0.460144 6.76603C0.460144 6.36403 0.500737 5.96203 0.580248 5.57188C0.658853 5.19015 0.775144 4.8148 0.927146 4.45712C1.07622 4.10494 1.2607 3.76551 1.47475 3.44922C1.68706 3.1347 1.93129 2.84042 2.19986 2.57136C2.46816 2.30373 2.764 2.06076 3.07812 1.84817C3.39542 1.63355 3.73536 1.44966 4.08747 1.3002C4.44597 1.14869 4.82155 1.03257 5.20356 0.954961C5.59454 0.87503 5.99711 0.834473 6.39969 0.834473C6.80197 0.834473 7.20455 0.87503 7.59611 0.954961C7.97751 1.03259 8.35312 1.14872 8.71192 1.3002C9.06402 1.44963 9.40367 1.63355 9.72097 1.84817C10.0351 2.06076 10.331 2.30373 10.5998 2.57136C10.8681 2.84042 11.1123 3.1347 11.3243 3.44922C11.5395 3.76551 11.7237 4.10497 11.8722 4.45712C12.0242 4.8148 12.1402 5.19015 12.2185 5.57188C12.2988 5.96203 12.3397 6.36403 12.3397 6.76603ZM4.23534 2.18442C2.82078 2.85144 1.76502 4.15301 1.43581 5.72163C1.56954 5.72279 3.68338 5.74944 6.11887 5.10326C5.24092 3.54565 4.30292 2.27451 4.23534 2.18442ZM6.53914 5.88326C3.92731 6.66406 1.42103 6.60788 1.33112 6.60442C1.32966 6.65886 1.32705 6.71156 1.32705 6.76603C1.32705 8.06729 1.81868 9.2536 2.62674 10.1506C2.625 10.148 4.01317 7.68877 6.75059 6.80484C6.81671 6.78283 6.88402 6.76312 6.95072 6.74402C6.82341 6.45615 6.68445 6.16767 6.53914 5.88326ZM9.74966 2.96439C8.8566 2.17804 7.68397 1.70105 6.39965 1.70105C5.9875 1.70105 5.58752 1.75087 5.20438 1.84297C5.28036 1.94493 6.23317 3.20711 7.10068 4.79771C9.01469 4.08119 9.73718 2.98291 9.74966 2.96439ZM7.29649 7.58335C7.28519 7.58709 7.27389 7.59031 7.26285 7.59435C4.26994 8.63622 3.29256 10.7359 3.28198 10.7588C4.14314 11.4275 5.22327 11.831 6.39969 11.831C7.10215 11.831 7.77128 11.6882 8.38008 11.4296C8.30496 10.987 8.01028 9.4358 7.29649 7.58335ZM9.23425 10.9668C10.3732 10.1993 11.1822 8.98052 11.4078 7.56884C11.3034 7.53525 9.88423 7.08661 8.24692 7.34874C8.91228 9.17456 9.18262 10.6615 9.23425 10.9668ZM7.49112 5.55249C7.60885 5.79404 7.72287 6.03989 7.82814 6.28697C7.86557 6.37561 7.90211 6.46251 7.93778 6.54938C9.68036 6.33041 11.3971 6.69882 11.4705 6.71386C11.4589 5.51309 11.0288 4.41105 10.317 3.54828C10.3075 3.56186 9.49388 4.73572 7.49112 5.55249Z" fill="white"/>
</svg>