<svg width="24" height="22" viewBox="0 0 24 22" fill="none" xmlns="http://www.w3.org/2000/svg">
    <mask id="path-1-inside-1_1_2137" fill="white">
        <path d="M15.0111 10.7646C14.8435 10.7646 14.6879 10.7185 14.5496 10.6444V10.6463C14.5496 10.91 14.4471 11.1577 14.2612 11.3431C14.0752 11.5291 13.8277 11.6316 13.5643 11.6316C13.3943 11.6316 13.2367 11.5844 13.097 11.5083C13.0828 11.7495 12.9864 11.975 12.8144 12.1472C12.6284 12.3332 12.381 12.4357 12.1174 12.4357C11.5938 12.4357 11.1685 12.024 11.1379 11.5081C10.9759 11.5957 10.7927 11.6416 10.6037 11.6295C10.0886 11.5957 9.68521 11.1506 9.68521 10.616V6.18435L9.18059 7.05859C8.98839 7.39297 8.62861 7.60058 8.24124 7.60058C8.05249 7.60058 7.86603 7.55105 7.70089 7.45643C7.49524 7.33721 7.34814 7.14583 7.28697 6.91687C7.22548 6.68778 7.25729 6.44818 7.37618 6.24285C7.37635 6.24285 9.02725 3.38395 9.12797 3.20834C9.13994 3.18194 9.17405 3.10536 9.20308 3.04009C9.23079 2.97777 9.25458 2.91381 9.27737 2.84953C9.77523 1.44397 11.008 0.570866 12.4947 0.570866C14.4254 0.570866 15.9961 2.27408 15.9961 4.36764L15.9963 9.77913C15.9963 10.0425 15.894 10.29 15.7082 10.4761C15.5222 10.6621 15.2747 10.7646 15.0111 10.7646L15.0111 10.7646ZM12.4948 1.09441C11.2172 1.09441 10.199 1.816 9.77084 3.02462C9.74345 3.10137 9.71492 3.17811 9.68163 3.2529C9.58504 3.46953 9.58504 3.46953 9.55781 3.50069L9.55421 3.49757C9.41941 3.75192 9.01894 4.44544 7.8295 6.50487C7.78063 6.58933 7.76767 6.6874 7.7926 6.7812C7.81786 6.875 7.87837 6.95405 7.96217 7.00242C8.22226 7.15182 8.57847 7.05539 8.72671 6.79711L9.72034 5.07681C9.77971 4.97431 9.89975 4.92397 10.0149 4.95513C10.1293 4.98579 10.2089 5.0896 10.2089 5.208V10.6161C10.2089 10.8713 10.4014 11.0915 10.6381 11.1071C10.7745 11.1143 10.9018 11.0686 10.9974 10.9731C11.0843 10.8862 11.1322 10.7704 11.1322 10.6466V7.10963C11.1322 6.96499 11.2494 6.84774 11.3941 6.84774C11.5387 6.84774 11.656 6.96483 11.656 7.10963L11.6558 11.4506C11.6558 11.7051 11.8629 11.9122 12.1174 11.9122C12.2411 11.9122 12.3572 11.8643 12.4443 11.7774C12.5312 11.6903 12.5791 11.5742 12.5791 11.4506V7.10963C12.5791 6.96499 12.6962 6.84773 12.841 6.84773C12.9856 6.84773 13.1029 6.96483 13.1029 7.10963L13.1027 10.6059V10.6466C13.1027 10.901 13.3098 11.1081 13.5645 11.1081C13.688 11.1081 13.8038 11.06 13.8913 10.9728C13.9783 10.886 14.0261 10.7703 14.0261 10.6464V7.10945C14.0261 6.96481 14.1432 6.84755 14.288 6.84755C14.4327 6.84755 14.5499 6.96464 14.5499 7.10945L14.5496 9.77925C14.5496 10.0339 14.7567 10.2411 15.0111 10.2411C15.1349 10.2411 15.2507 10.193 15.3376 10.1063C15.4248 10.019 15.4725 9.9029 15.4725 9.77925L15.4727 4.36777C15.4727 2.56304 14.1368 1.09446 12.4947 1.09446L12.4948 1.09441Z"/>
    </mask>
    <path d="M15.0111 10.7646C14.8435 10.7646 14.6879 10.7185 14.5496 10.6444V10.6463C14.5496 10.91 14.4471 11.1577 14.2612 11.3431C14.0752 11.5291 13.8277 11.6316 13.5643 11.6316C13.3943 11.6316 13.2367 11.5844 13.097 11.5083C13.0828 11.7495 12.9864 11.975 12.8144 12.1472C12.6284 12.3332 12.381 12.4357 12.1174 12.4357C11.5938 12.4357 11.1685 12.024 11.1379 11.5081C10.9759 11.5957 10.7927 11.6416 10.6037 11.6295C10.0886 11.5957 9.68521 11.1506 9.68521 10.616V6.18435L9.18059 7.05859C8.98839 7.39297 8.62861 7.60058 8.24124 7.60058C8.05249 7.60058 7.86603 7.55105 7.70089 7.45643C7.49524 7.33721 7.34814 7.14583 7.28697 6.91687C7.22548 6.68778 7.25729 6.44818 7.37618 6.24285C7.37635 6.24285 9.02725 3.38395 9.12797 3.20834C9.13994 3.18194 9.17405 3.10536 9.20308 3.04009C9.23079 2.97777 9.25458 2.91381 9.27737 2.84953C9.77523 1.44397 11.008 0.570866 12.4947 0.570866C14.4254 0.570866 15.9961 2.27408 15.9961 4.36764L15.9963 9.77913C15.9963 10.0425 15.894 10.29 15.7082 10.4761C15.5222 10.6621 15.2747 10.7646 15.0111 10.7646L15.0111 10.7646ZM12.4948 1.09441C11.2172 1.09441 10.199 1.816 9.77084 3.02462C9.74345 3.10137 9.71492 3.17811 9.68163 3.2529C9.58504 3.46953 9.58504 3.46953 9.55781 3.50069L9.55421 3.49757C9.41941 3.75192 9.01894 4.44544 7.8295 6.50487C7.78063 6.58933 7.76767 6.6874 7.7926 6.7812C7.81786 6.875 7.87837 6.95405 7.96217 7.00242C8.22226 7.15182 8.57847 7.05539 8.72671 6.79711L9.72034 5.07681C9.77971 4.97431 9.89975 4.92397 10.0149 4.95513C10.1293 4.98579 10.2089 5.0896 10.2089 5.208V10.6161C10.2089 10.8713 10.4014 11.0915 10.6381 11.1071C10.7745 11.1143 10.9018 11.0686 10.9974 10.9731C11.0843 10.8862 11.1322 10.7704 11.1322 10.6466V7.10963C11.1322 6.96499 11.2494 6.84774 11.3941 6.84774C11.5387 6.84774 11.656 6.96483 11.656 7.10963L11.6558 11.4506C11.6558 11.7051 11.8629 11.9122 12.1174 11.9122C12.2411 11.9122 12.3572 11.8643 12.4443 11.7774C12.5312 11.6903 12.5791 11.5742 12.5791 11.4506V7.10963C12.5791 6.96499 12.6962 6.84773 12.841 6.84773C12.9856 6.84773 13.1029 6.96483 13.1029 7.10963L13.1027 10.6059V10.6466C13.1027 10.901 13.3098 11.1081 13.5645 11.1081C13.688 11.1081 13.8038 11.06 13.8913 10.9728C13.9783 10.886 14.0261 10.7703 14.0261 10.6464V7.10945C14.0261 6.96481 14.1432 6.84755 14.288 6.84755C14.4327 6.84755 14.5499 6.96464 14.5499 7.10945L14.5496 9.77925C14.5496 10.0339 14.7567 10.2411 15.0111 10.2411C15.1349 10.2411 15.2507 10.193 15.3376 10.1063C15.4248 10.019 15.4725 9.9029 15.4725 9.77925L15.4727 4.36777C15.4727 2.56304 14.1368 1.09446 12.4947 1.09446L12.4948 1.09441Z" fill="#4CAF4F"/>
    <path d="M15.0111 10.7646V9.83647H18.2901L15.4975 11.555L15.0111 10.7646ZM14.5496 10.6444H13.6215V9.09362L14.9882 9.82642L14.5496 10.6444ZM14.2612 11.3431L13.6049 10.6869L13.6058 10.686L14.2612 11.3431ZM13.097 11.5083L12.1704 11.4541L12.2558 9.99345L13.5408 10.6932L13.097 11.5083ZM12.8144 12.1472L13.471 12.8031L13.4707 12.8035L12.8144 12.1472ZM11.1379 11.5081L10.6966 10.6916L11.978 9.9991L12.0643 11.4531L11.1379 11.5081ZM10.6037 11.6295L10.5442 12.5557L10.543 12.5556L10.6037 11.6295ZM9.68521 6.18435L8.88142 5.72039L10.6133 2.71998V6.18435H9.68521ZM9.18059 7.05859L8.37595 6.59609L8.37679 6.59462L9.18059 7.05859ZM7.70089 7.45643L7.23947 8.2617L7.2354 8.25935L7.70089 7.45643ZM7.28697 6.91687L8.18333 6.67627L8.18361 6.67731L7.28697 6.91687ZM7.37618 6.24285L6.57302 5.77779L6.84113 5.31476H7.37618V6.24285ZM9.12797 3.20834L9.97323 3.5916L9.95501 3.63179L9.93306 3.67007L9.12797 3.20834ZM9.20308 3.04009L8.35506 2.66296L8.35507 2.66295L9.20308 3.04009ZM9.27737 2.84953L10.1522 3.1594L10.1521 3.15966L9.27737 2.84953ZM15.9961 4.36764L15.068 4.36767V4.36764H15.9961ZM15.9963 9.77913L16.9244 9.7791V9.77913H15.9963ZM15.7082 10.4761L16.365 11.1318L16.3644 11.1324L15.7082 10.4761ZM15.0111 10.7646V11.6927H11.7321L14.5246 9.97416L15.0111 10.7646ZM12.4948 1.09441V0.166316H13.7252L13.3871 1.34938L12.4948 1.09441ZM9.77084 3.02462L10.6457 3.33454L10.6449 3.33654L9.77084 3.02462ZM9.68163 3.2529L10.5295 3.63035L10.5293 3.63084L9.68163 3.2529ZM9.55781 3.50069L10.2567 4.11134L9.64956 4.80623L8.9512 4.20309L9.55781 3.50069ZM9.55421 3.49757L8.73416 3.06297L9.27948 2.03401L10.1608 2.79517L9.55421 3.49757ZM7.8295 6.50487L8.63318 6.96904L8.63279 6.96971L7.8295 6.50487ZM7.7926 6.7812L6.89641 7.02248L6.89564 7.01958L7.7926 6.7812ZM7.96217 7.00242L7.4999 7.8072L7.49817 7.8062L7.96217 7.00242ZM8.72671 6.79711L7.92176 6.33512L7.92304 6.33291L8.72671 6.79711ZM9.72034 5.07681L8.91667 4.61261L8.91724 4.61164L9.72034 5.07681ZM10.0149 4.95513L9.7747 5.85161L9.7724 5.85099L10.0149 4.95513ZM10.6381 11.1071L10.589 12.034L10.5771 12.0332L10.6381 11.1071ZM10.9974 10.9731L11.6536 11.6294L11.653 11.63L10.9974 10.9731ZM11.656 7.10963H12.584V7.10967L11.656 7.10963ZM11.6558 11.4506H10.7277V11.4505L11.6558 11.4506ZM12.4443 11.7774L13.1011 12.4331L13.0999 12.4343L12.4443 11.7774ZM13.1029 7.10963H14.031V7.10967L13.1029 7.10963ZM13.1027 10.6059H12.1746V10.6059L13.1027 10.6059ZM13.8913 10.9728L14.547 11.6297L14.5464 11.6303L13.8913 10.9728ZM14.5499 7.10945H15.478V7.10956L14.5499 7.10945ZM14.5496 9.77925H13.6215V9.77914L14.5496 9.77925ZM15.3376 10.1063L15.9938 10.7625L15.9932 10.7631L15.3376 10.1063ZM15.4725 9.77925H14.5444V9.77923L15.4725 9.77925ZM15.4727 4.36777H16.4008V4.36779L15.4727 4.36777ZM12.4947 1.09446V2.02256H11.2643L11.6024 0.839496L12.4947 1.09446ZM15.0111 10.7646V11.6927C14.6693 11.6927 14.3642 11.598 14.111 11.4623L14.5496 10.6444L14.9882 9.82642C15.0002 9.83285 15.0078 9.83531 15.0108 9.83613C15.0134 9.83683 15.0131 9.83647 15.0111 9.83647V10.7646ZM14.5496 10.6444H15.4777V10.6463H14.5496H13.6215V10.6444H14.5496ZM14.5496 10.6463H15.4777C15.4777 11.1554 15.2779 11.6398 14.9165 12.0003L14.2612 11.3431L13.6058 10.686C13.6124 10.6794 13.6157 10.6737 13.6176 10.6691C13.6195 10.6644 13.6215 10.6573 13.6215 10.6463H14.5496ZM14.2612 11.3431L14.9174 11.9994C14.5572 12.3596 14.0737 12.5597 13.5643 12.5597V11.6316V10.7035C13.575 10.7035 13.582 10.7016 13.5868 10.6996C13.5915 10.6976 13.5976 10.6941 13.6049 10.6869L14.2612 11.3431ZM13.5643 11.6316V12.5597C13.2181 12.5597 12.9092 12.4628 12.6531 12.3234L13.097 11.5083L13.5408 10.6932C13.5529 10.6998 13.5606 10.7023 13.5636 10.7031C13.5662 10.7038 13.566 10.7035 13.5643 10.7035V11.6316ZM13.097 11.5083L14.0235 11.5624C13.9968 12.0193 13.8114 12.4623 13.471 12.8031L12.8144 12.1472L12.1578 11.4913C12.1612 11.4878 12.1632 11.4848 12.1649 11.481C12.1667 11.4768 12.1696 11.4683 12.1704 11.4541L13.097 11.5083ZM12.8144 12.1472L13.4707 12.8035C13.1104 13.1637 12.6268 13.3638 12.1174 13.3638V12.4357V11.5076C12.1282 11.5076 12.1353 11.5056 12.14 11.5037C12.1448 11.5017 12.1509 11.4982 12.1581 11.4909L12.8144 12.1472ZM12.1174 12.4357V13.3638C11.0928 13.3638 10.2706 12.5596 10.2114 11.5632L11.1379 11.5081L12.0643 11.4531C12.0653 11.4689 12.0717 11.4827 12.0832 11.4936C12.0887 11.4989 12.0944 11.5023 12.0993 11.5044C12.1036 11.5061 12.1091 11.5076 12.1174 11.5076V12.4357ZM11.1379 11.5081L11.5792 12.3246C11.2794 12.4866 10.9239 12.58 10.5442 12.5557L10.6037 11.6295L10.6632 10.7033C10.6633 10.7033 10.6652 10.7035 10.6701 10.7023C10.6754 10.7011 10.6844 10.6982 10.6966 10.6916L11.1379 11.5081ZM10.6037 11.6295L10.543 12.5556C9.51252 12.488 8.75712 11.6116 8.75712 10.616H9.68521H10.6133C10.6133 10.6474 10.6247 10.6715 10.639 10.6873C10.6529 10.7026 10.6624 10.7032 10.6645 10.7034L10.6037 11.6295ZM9.68521 10.616H8.75712V6.18435H9.68521H10.6133V10.616H9.68521ZM9.68521 6.18435L10.489 6.64832L9.98439 7.52255L9.18059 7.05859L8.37679 6.59462L8.88142 5.72039L9.68521 6.18435ZM9.18059 7.05859L9.98523 7.52109C9.62661 8.14501 8.95907 8.52867 8.24124 8.52867V7.60058V6.67248C8.29815 6.67248 8.35017 6.64093 8.37595 6.59609L9.18059 7.05859ZM8.24124 7.60058V8.52867C7.89027 8.52867 7.54478 8.43664 7.23947 8.26169L7.70089 7.45643L8.16231 6.65116C8.18727 6.66546 8.2147 6.67248 8.24124 6.67248V7.60058ZM7.70089 7.45643L7.2354 8.25935C6.81872 8.01778 6.51543 7.62465 6.39033 7.15644L7.28697 6.91687L8.18361 6.67731C8.18276 6.67414 8.18045 6.66854 8.17598 6.66271C8.17154 6.65693 8.16744 6.65413 8.16637 6.65351L7.70089 7.45643ZM7.28697 6.91687L6.39061 7.15748C6.26502 6.68961 6.33077 6.19616 6.57302 5.77779L7.37618 6.24285L8.17935 6.70791C8.18067 6.70563 8.18299 6.70033 8.18399 6.69283C8.18498 6.68531 8.18415 6.67931 8.18333 6.67627L7.28697 6.91687ZM7.37618 6.24285V5.31476C6.92092 5.43409 6.58015 5.76568 6.57761 5.76995C6.57676 5.77138 6.5755 5.77353 6.5751 5.77422C6.57487 5.77461 6.57447 5.77529 6.57434 5.77552C6.57425 5.77566 6.57408 5.77596 6.57404 5.77603C6.57391 5.77625 6.57395 5.77618 6.5743 5.77558C6.57493 5.77449 6.57599 5.77266 6.57753 5.77C6.58058 5.76473 6.58516 5.7568 6.59121 5.74633C6.60329 5.72542 6.62105 5.69468 6.64372 5.65544C6.68905 5.57696 6.75393 5.46463 6.83211 5.32926C6.98846 5.05853 7.19797 4.6957 7.41063 4.32739C7.83665 3.58953 8.27341 2.83288 8.32288 2.74662L9.12797 3.20834L9.93306 3.67007C9.88181 3.75942 9.44276 4.52002 9.01811 5.25551C8.80543 5.62387 8.59589 5.98675 8.4395 6.25755C8.36131 6.39294 8.2964 6.50533 8.25102 6.58389C8.22834 6.62316 8.21051 6.65401 8.19834 6.67507C8.19227 6.68558 8.18756 6.69373 8.18434 6.69929C8.18275 6.70204 8.18143 6.70432 8.18047 6.70598C8.18003 6.70675 8.17947 6.70772 8.17893 6.70863C8.17874 6.70897 8.17814 6.71 8.17742 6.71122C8.17697 6.71199 8.17567 6.71421 8.1748 6.71568C8.17223 6.72 7.83145 7.05161 7.37618 7.17094V6.24285ZM9.12797 3.20834L8.28271 2.82508C8.29292 2.80255 8.32529 2.72991 8.35506 2.66296L9.20308 3.04009L10.0511 3.41721C10.0228 3.48081 9.98696 3.56133 9.97323 3.5916L9.12797 3.20834ZM9.20308 3.04009L8.35507 2.66295C8.36797 2.63395 8.38224 2.59689 8.40262 2.5394L9.27737 2.84953L10.1521 3.15966C10.1269 3.23074 10.0936 3.32159 10.0511 3.41723L9.20308 3.04009ZM9.27737 2.84953L8.40253 2.53965C9.03112 0.765037 10.6133 -0.357227 12.4947 -0.357227V0.570866V1.49896C11.4027 1.49896 10.5193 2.1229 10.1522 3.1594L9.27737 2.84953ZM12.4947 0.570866V-0.357227C15.0073 -0.357227 16.9242 1.83371 16.9242 4.36764H15.9961H15.068C15.068 2.71445 13.8435 1.49896 12.4947 1.49896V0.570866ZM15.9961 4.36764L16.9242 4.36761L16.9244 9.7791L15.9963 9.77913L15.0682 9.77916L15.068 4.36767L15.9961 4.36764ZM15.9963 9.77913H16.9244C16.9244 10.2881 16.7247 10.7714 16.365 11.1318L15.7082 10.4761L15.0513 9.82047C15.0586 9.81312 15.0622 9.80687 15.0642 9.80199C15.0662 9.79711 15.0682 9.78995 15.0682 9.77913H15.9963ZM15.7082 10.4761L16.3644 11.1324C16.0042 11.4927 15.5205 11.6927 15.0111 11.6927V10.7646V9.83649C15.022 9.83649 15.0291 9.83451 15.0338 9.83255C15.0386 9.83059 15.0447 9.8271 15.0519 9.81986L15.7082 10.4761ZM15.0111 10.7646L14.5246 9.97416L14.5247 9.97414L15.0111 10.7646L15.4975 11.555L15.4975 11.555L15.0111 10.7646ZM12.4948 1.09441V2.0225C11.6124 2.0225 10.9432 2.49454 10.6457 3.33454L9.77084 3.02462L8.89602 2.7147C9.45479 1.13745 10.8221 0.166316 12.4948 0.166316V1.09441ZM9.77084 3.02462L10.6449 3.33654C10.6157 3.41863 10.5776 3.52232 10.5295 3.63035L9.68163 3.2529L8.83376 2.87544C8.85225 2.83391 8.87126 2.7841 8.89673 2.7127L9.77084 3.02462ZM9.68163 3.2529L10.5293 3.63084C10.4868 3.72616 10.4512 3.80666 10.4239 3.86119C10.407 3.89503 10.3796 3.94719 10.3399 4.00496C10.2997 4.06349 10.2599 4.10764 10.2567 4.11134L9.55781 3.50069L8.85892 2.89003C8.86109 2.88754 8.86038 2.88835 8.85928 2.88963C8.85786 2.89127 8.85426 2.89548 8.84953 2.90125C8.84462 2.90722 8.83845 2.91494 8.83149 2.92412C8.82447 2.93338 8.81733 2.94323 8.81019 2.95362C8.79565 2.97478 8.78445 2.99331 8.77649 3.00733C8.76906 3.02041 8.76451 3.02946 8.76349 3.0315C8.76244 3.03361 8.7631 3.03237 8.76625 3.02562C8.7693 3.01908 8.77363 3.00965 8.77984 2.99594C8.78599 2.98234 8.79336 2.96592 8.80244 2.94563C8.8115 2.92537 8.82185 2.90216 8.83398 2.87495L9.68163 3.2529ZM9.55781 3.50069L8.9512 4.20309L8.94759 4.19997L9.55421 3.49757L10.1608 2.79517L10.1644 2.79828L9.55781 3.50069ZM9.55421 3.49757L10.3743 3.93217C10.229 4.20625 9.81432 4.92398 8.63318 6.96904L7.8295 6.50487L7.02582 6.0407C8.22355 3.96691 8.60981 3.2976 8.73416 3.06297L9.55421 3.49757ZM7.8295 6.50487L8.63279 6.96971C8.70706 6.84138 8.72775 6.68654 8.68956 6.54282L7.7926 6.7812L6.89564 7.01958C6.80759 6.68826 6.8542 6.33728 7.02621 6.04003L7.8295 6.50487ZM7.7926 6.7812L8.68878 6.53992C8.65059 6.39807 8.55673 6.27401 8.42617 6.19865L7.96217 7.00242L7.49817 7.8062C7.20001 7.63408 6.98512 7.35194 6.89642 7.02248L7.7926 6.7812ZM7.96217 7.00242L8.42444 6.19765C8.31879 6.13696 8.21605 6.13737 8.1451 6.15647C8.07442 6.1755 7.9838 6.22704 7.92177 6.33513L8.72671 6.79711L9.53165 7.25909C9.12716 7.96384 8.20277 8.21093 7.4999 7.8072L7.96217 7.00242ZM8.72671 6.79711L7.92304 6.33291L8.91667 4.61261L9.72034 5.07681L10.524 5.541L9.53037 7.2613L8.72671 6.79711ZM9.72034 5.07681L8.91724 4.61164C9.18531 4.14882 9.73247 3.91721 10.2573 4.05927L10.0149 4.95513L9.7724 5.85099C10.067 5.93073 10.3741 5.7998 10.5234 5.54198L9.72034 5.07681ZM10.0149 4.95513L10.255 4.05865C10.7757 4.19814 11.137 4.66998 11.137 5.208H10.2089H9.28078C9.28078 5.50922 9.48296 5.77345 9.7747 5.8516L10.0149 4.95513ZM10.2089 5.208H11.137V10.6161H10.2089H9.28078V5.208H10.2089ZM10.2089 10.6161H11.137C11.137 10.5104 11.0978 10.4142 11.0335 10.3407C10.9693 10.2672 10.8559 10.1914 10.699 10.181L10.6381 11.1071L10.5771 12.0332C9.79583 11.9818 9.28078 11.3012 9.28078 10.6161H10.2089ZM10.6381 11.1071L10.6871 10.1803C10.5774 10.1745 10.4435 10.2147 10.3417 10.3163L10.9974 10.9731L11.653 11.63C11.36 11.9225 10.9716 12.0541 10.589 12.0339L10.6381 11.1071ZM10.9974 10.9731L10.3411 10.3169C10.253 10.4049 10.2041 10.5256 10.2041 10.6466H11.1322H12.0603C12.0603 11.0152 11.9155 11.3675 11.6536 11.6294L10.9974 10.9731ZM11.1322 10.6466H10.2041V7.10963H11.1322H12.0603V10.6466H11.1322ZM11.1322 7.10963H10.2041C10.2041 6.45242 10.7368 5.91964 11.3941 5.91964V6.84774V7.77583C11.762 7.77583 12.0603 7.47756 12.0603 7.10963H11.1322ZM11.3941 6.84774V5.91964C12.0509 5.91964 12.584 6.45189 12.584 7.10963H11.656H10.7279C10.7279 7.47777 11.0265 7.77583 11.3941 7.77583V6.84774ZM11.656 7.10963L12.584 7.10967L12.5839 11.4506L11.6558 11.4506L10.7277 11.4505L10.7279 7.1096L11.656 7.10963ZM11.6558 11.4506H12.5839C12.5839 11.1925 12.3755 10.9841 12.1174 10.9841V11.9122V12.8403C11.3503 12.8403 10.7277 12.2177 10.7277 11.4506H11.6558ZM12.1174 11.9122V10.9841C11.9966 10.9841 11.8765 11.0328 11.7886 11.1205L12.4443 11.7774L13.0999 12.4343C12.8378 12.6959 12.4855 12.8403 12.1174 12.8403V11.9122ZM12.4443 11.7774L11.7874 11.1218C11.6996 11.2097 11.651 11.3298 11.651 11.4506H12.5791H13.5072C13.5072 11.8187 13.3627 12.171 13.1011 12.4331L12.4443 11.7774ZM12.5791 11.4506H11.651V7.10963H12.5791H13.5072V11.4506H12.5791ZM12.5791 7.10963H11.651C11.651 6.4528 12.1832 5.91964 12.841 5.91964V6.84773V7.77583C13.2091 7.77583 13.5072 7.47718 13.5072 7.10963H12.5791ZM12.841 6.84773V5.91964C13.4978 5.91964 14.031 6.45188 14.031 7.10963H13.1029H12.1748C12.1748 7.47777 12.4734 7.77583 12.841 7.77583V6.84773ZM13.1029 7.10963L14.031 7.10967L14.0308 10.606L13.1027 10.6059L12.1746 10.6059L12.1748 7.10959L13.1029 7.10963ZM13.1027 10.6059H14.0308V10.6466H13.1027H12.1746V10.6059H13.1027ZM13.1027 10.6466H14.0308C14.0308 10.3879 13.8219 10.18 13.5645 10.18V11.1081V12.0362C12.7977 12.0362 12.1746 11.414 12.1746 10.6466H13.1027ZM13.5645 11.1081V10.18C13.4412 10.18 13.3218 10.2301 13.2363 10.3153L13.8913 10.9728L14.5464 11.6303C14.2857 11.8899 13.9348 12.0362 13.5645 12.0362V11.1081ZM13.8913 10.9728L13.2357 10.3159C13.1469 10.4045 13.098 10.5256 13.098 10.6464H14.0261H14.9542C14.9542 11.0149 14.8096 11.3675 14.547 11.6297L13.8913 10.9728ZM14.0261 10.6464H13.098V7.10945H14.0261H14.9542V10.6464H14.0261ZM14.0261 7.10945H13.098C13.098 6.45261 13.6303 5.91946 14.288 5.91946V6.84755V7.77564C14.6562 7.77564 14.9542 7.47701 14.9542 7.10945H14.0261ZM14.288 6.84755V5.91946C14.9449 5.91946 15.478 6.45169 15.478 7.10945H14.5499H13.6218C13.6218 7.47759 13.9205 7.77564 14.288 7.77564V6.84755ZM14.5499 7.10945L15.478 7.10956L15.4777 9.77937L14.5496 9.77925L13.6215 9.77914L13.6218 7.10933L14.5499 7.10945ZM14.5496 9.77925H15.4777C15.4777 9.5218 15.2697 9.31297 15.0111 9.31297V10.2411V11.1692C14.2437 11.1692 13.6215 10.5461 13.6215 9.77925H14.5496ZM15.0111 10.2411V9.31297C14.8893 9.31297 14.7692 9.36226 14.6819 9.44938L15.3376 10.1063L15.9932 10.7631C15.7321 11.0238 15.3804 11.1692 15.0111 11.1692V10.2411ZM15.3376 10.1063L14.6813 9.45C14.5929 9.53837 14.5444 9.65899 14.5444 9.77925H15.4725H16.4006C16.4006 10.1468 16.2567 10.4997 15.9938 10.7625L15.3376 10.1063ZM15.4725 9.77925L14.5444 9.77923L14.5446 4.36774L15.4727 4.36777L16.4008 4.36779L16.4006 9.77928L15.4725 9.77925ZM15.4727 4.36777H14.5446C14.5446 2.99103 13.5436 2.02256 12.4947 2.02256V1.09446V0.166369C14.7301 0.166369 16.4008 2.13505 16.4008 4.36777H15.4727ZM12.4947 1.09446L11.6024 0.839496L11.6024 0.839442L12.4948 1.09441L13.3871 1.34938L13.3871 1.34943L12.4947 1.09446Z" fill="#4CAF4F" mask="url(#path-1-inside-1_1_2137)"/>
    <path d="M3.63086 12.5525L3.5791 12.5251C3.56683 12.5473 3.53238 12.6092 3.48145 12.7009C3.49954 12.7099 3.51786 12.7175 3.53613 12.7244C3.56728 12.6682 3.59851 12.6108 3.63086 12.5525Z" fill="#4CAF4F" stroke="#4CAF4F" stroke-width="0.928093"/>
    <mask id="path-4-inside-2_1_2137" fill="white">
        <path d="M22.8812 19.8225C22.3979 20.6285 21.6031 21.1802 20.6429 21.3764C19.6912 21.5704 18.6904 21.3914 17.8242 20.8721L13.1835 18.0882C12.9577 17.9527 12.7979 17.7375 12.734 17.482C12.6705 17.227 12.7102 16.9622 12.8455 16.7365C12.9299 16.5955 13.0483 16.4843 13.1856 16.4021L13.1843 16.4013C12.9585 16.2658 12.7988 16.0507 12.7351 15.7955C12.6712 15.5403 12.7109 15.2753 12.8463 15.0494C12.9336 14.9042 13.0531 14.7907 13.1896 14.7102C12.9915 14.5739 12.8488 14.376 12.7901 14.1412C12.7261 13.8858 12.7658 13.621 12.9013 13.3953C13.0366 13.1695 13.2519 13.0099 13.5071 12.9461C13.5868 12.9261 13.6676 12.9163 13.7476 12.9163C13.9047 12.9164 14.0589 12.9563 14.2006 13.0304C14.2093 12.8469 14.2639 12.6667 14.3711 12.512C14.6652 12.0878 15.2542 11.9704 15.7131 12.2457L19.5133 14.5252L19.0235 13.6429C18.8355 13.3061 18.8424 12.8905 19.0417 12.5583C19.1387 12.3966 19.2775 12.2623 19.4433 12.1693C19.5796 12.0938 19.7272 12.0581 19.8728 12.0581C20.1855 12.0583 20.4892 12.2232 20.6509 12.5153C21.2144 13.5306 22.2777 15.4454 22.3525 15.579C22.3684 15.6022 22.4164 15.671 22.4576 15.7296C22.4968 15.7852 22.5391 15.8383 22.5829 15.8911C23.5318 17.0413 23.6462 18.5476 22.8812 19.8225L22.8812 19.8225ZM22.1789 16.2249C22.1267 16.1617 22.0755 16.0973 22.029 16.0309C21.8873 15.8298 21.8837 15.8246 21.873 15.7719C21.7074 15.4979 21.3033 14.7704 20.1926 12.7694C20.0952 12.5937 19.8738 12.5296 19.6975 12.627C19.6107 12.6756 19.541 12.7433 19.4902 12.8281C19.3872 12.9998 19.3833 13.2143 19.4805 13.3884L20.4445 15.1253C20.502 15.2289 20.4829 15.3582 20.3977 15.4405C20.3128 15.523 20.1829 15.5374 20.0809 15.4767L15.4436 12.6947C15.225 12.5637 14.9368 12.615 14.8017 12.8102C14.724 12.9224 14.6992 13.0562 14.7317 13.1869C14.7615 13.3063 14.8365 13.407 14.9426 13.4706C14.9429 13.4708 14.9431 13.4711 14.9434 13.4712L17.9755 15.2902C18.0994 15.3647 18.1396 15.5254 18.0652 15.6496C17.9907 15.7734 17.8302 15.8139 17.7059 15.7393L13.9834 13.5062C13.8778 13.4429 13.7535 13.4242 13.6341 13.4542C13.5144 13.484 13.4137 13.5588 13.3502 13.6649C13.2866 13.7707 13.2682 13.8948 13.2977 14.0142C13.3276 14.1336 13.4025 14.2345 13.5085 14.2981L14.2328 14.7325L17.2308 16.5312C17.3547 16.6057 17.3949 16.7664 17.3205 16.8905C17.246 17.0143 17.0855 17.0547 16.9612 16.9802L13.9285 15.1607C13.7104 15.0295 13.4263 15.1007 13.2951 15.3191C13.2315 15.4251 13.2131 15.5492 13.2426 15.6686C13.2725 15.788 13.3474 15.8887 13.4535 15.9525L14.1971 16.3985L16.4862 17.772C16.6102 17.8464 16.6504 18.0071 16.5759 18.1313C16.5015 18.2551 16.3409 18.2958 16.2166 18.221L13.9275 16.8475C13.8219 16.7842 13.6981 16.7655 13.578 16.7956C13.4586 16.8254 13.3576 16.9002 13.2941 17.006C13.2307 17.1119 13.2121 17.2362 13.2417 17.3554C13.2715 17.4748 13.3465 17.5755 13.4526 17.6393L18.0933 20.4232C18.8463 20.875 19.7148 21.0314 20.5377 20.8635C21.3521 20.6972 22.0248 20.232 22.4319 19.5534C23.0896 18.4576 22.995 17.2132 22.1791 16.2248L22.1789 16.2249Z"/>
    </mask>
    <path d="M22.8812 19.8225C22.3979 20.6285 21.6031 21.1802 20.6429 21.3764C19.6912 21.5704 18.6904 21.3914 17.8242 20.8721L13.1835 18.0882C12.9577 17.9527 12.7979 17.7375 12.734 17.482C12.6705 17.227 12.7102 16.9622 12.8455 16.7365C12.9299 16.5955 13.0483 16.4843 13.1856 16.4021L13.1843 16.4013C12.9585 16.2658 12.7988 16.0507 12.7351 15.7955C12.6712 15.5403 12.7109 15.2753 12.8463 15.0494C12.9336 14.9042 13.0531 14.7907 13.1896 14.7102C12.9915 14.5739 12.8488 14.376 12.7901 14.1412C12.7261 13.8858 12.7658 13.621 12.9013 13.3953C13.0366 13.1695 13.2519 13.0099 13.5071 12.9461C13.5868 12.9261 13.6676 12.9163 13.7476 12.9163C13.9047 12.9164 14.0589 12.9563 14.2006 13.0304C14.2093 12.8469 14.2639 12.6667 14.3711 12.512C14.6652 12.0878 15.2542 11.9704 15.7131 12.2457L19.5133 14.5252L19.0235 13.6429C18.8355 13.3061 18.8424 12.8905 19.0417 12.5583C19.1387 12.3966 19.2775 12.2623 19.4433 12.1693C19.5796 12.0938 19.7272 12.0581 19.8728 12.0581C20.1855 12.0583 20.4892 12.2232 20.6509 12.5153C21.2144 13.5306 22.2777 15.4454 22.3525 15.579C22.3684 15.6022 22.4164 15.671 22.4576 15.7296C22.4968 15.7852 22.5391 15.8383 22.5829 15.8911C23.5318 17.0413 23.6462 18.5476 22.8812 19.8225L22.8812 19.8225ZM22.1789 16.2249C22.1267 16.1617 22.0755 16.0973 22.029 16.0309C21.8873 15.8298 21.8837 15.8246 21.873 15.7719C21.7074 15.4979 21.3033 14.7704 20.1926 12.7694C20.0952 12.5937 19.8738 12.5296 19.6975 12.627C19.6107 12.6756 19.541 12.7433 19.4902 12.8281C19.3872 12.9998 19.3833 13.2143 19.4805 13.3884L20.4445 15.1253C20.502 15.2289 20.4829 15.3582 20.3977 15.4405C20.3128 15.523 20.1829 15.5374 20.0809 15.4767L15.4436 12.6947C15.225 12.5637 14.9368 12.615 14.8017 12.8102C14.724 12.9224 14.6992 13.0562 14.7317 13.1869C14.7615 13.3063 14.8365 13.407 14.9426 13.4706C14.9429 13.4708 14.9431 13.4711 14.9434 13.4712L17.9755 15.2902C18.0994 15.3647 18.1396 15.5254 18.0652 15.6496C17.9907 15.7734 17.8302 15.8139 17.7059 15.7393L13.9834 13.5062C13.8778 13.4429 13.7535 13.4242 13.6341 13.4542C13.5144 13.484 13.4137 13.5588 13.3502 13.6649C13.2866 13.7707 13.2682 13.8948 13.2977 14.0142C13.3276 14.1336 13.4025 14.2345 13.5085 14.2981L14.2328 14.7325L17.2308 16.5312C17.3547 16.6057 17.3949 16.7664 17.3205 16.8905C17.246 17.0143 17.0855 17.0547 16.9612 16.9802L13.9285 15.1607C13.7104 15.0295 13.4263 15.1007 13.2951 15.3191C13.2315 15.4251 13.2131 15.5492 13.2426 15.6686C13.2725 15.788 13.3474 15.8887 13.4535 15.9525L14.1971 16.3985L16.4862 17.772C16.6102 17.8464 16.6504 18.0071 16.5759 18.1313C16.5015 18.2551 16.3409 18.2958 16.2166 18.221L13.9275 16.8475C13.8219 16.7842 13.6981 16.7655 13.578 16.7956C13.4586 16.8254 13.3576 16.9002 13.2941 17.006C13.2307 17.1119 13.2121 17.2362 13.2417 17.3554C13.2715 17.4748 13.3465 17.5755 13.4526 17.6393L18.0933 20.4232C18.8463 20.875 19.7148 21.0314 20.5377 20.8635C21.3521 20.6972 22.0248 20.232 22.4319 19.5534C23.0896 18.4576 22.995 17.2132 22.1791 16.2248L22.1789 16.2249Z" fill="#4CAF4F"/>
    <path d="M22.8812 19.8225L22.5817 18.9441L24.9804 18.1263L23.6772 20.2998L22.8812 19.8225ZM20.6429 21.3764L20.8286 22.2857L20.8283 22.2857L20.6429 21.3764ZM17.8242 20.8721L17.3469 21.668L17.3467 21.6679L17.8242 20.8721ZM13.1835 18.0882L13.6609 17.2923L13.6609 17.2923L13.1835 18.0882ZM12.734 17.482L11.8337 17.7074L11.8334 17.7062L12.734 17.482ZM12.8455 16.7365L13.6417 17.2133L13.6415 17.2137L12.8455 16.7365ZM13.1856 16.4021L13.6775 15.6151L14.9641 16.4192L13.6623 17.1985L13.1856 16.4021ZM13.1843 16.4013L13.6617 15.6054L13.669 15.6098L13.6762 15.6143L13.1843 16.4013ZM12.7351 15.7955L13.6354 15.5699L13.6357 15.571L12.7351 15.7955ZM12.8463 15.0494L12.0503 14.5721L12.0509 14.5712L12.8463 15.0494ZM13.1896 14.7102L13.7156 13.9456L14.9142 14.7701L13.6612 15.5095L13.1896 14.7102ZM12.7901 14.1412L13.6904 13.9157L13.6905 13.9161L12.7901 14.1412ZM12.9013 13.3953L13.6974 13.8723L13.697 13.873L12.9013 13.3953ZM13.5071 12.9461L13.733 13.8463L13.7321 13.8465L13.5071 12.9461ZM13.7476 12.9163V11.9882L13.7486 11.9882L13.7476 12.9163ZM14.2006 13.0304L15.1276 13.0743L15.0588 14.5269L13.7703 13.8528L14.2006 13.0304ZM14.3711 12.512L15.1339 13.0407L15.1338 13.0409L14.3711 12.512ZM15.7131 12.2457L15.2357 13.0416L15.2356 13.0415L15.7131 12.2457ZM19.5133 14.5252L20.3247 14.0747L22.0058 17.1025L19.0359 15.3211L19.5133 14.5252ZM19.0235 13.6429L19.8339 13.1907L19.8349 13.1924L19.0235 13.6429ZM19.0417 12.5583L18.2457 12.0809L18.246 12.0805L19.0417 12.5583ZM19.4433 12.1693L18.9893 11.3598L18.9938 11.3573L19.4433 12.1693ZM19.8728 12.0581V11.13L19.8732 11.13L19.8728 12.0581ZM20.6509 12.5153L19.8394 12.9657L19.8389 12.9648L20.6509 12.5153ZM22.3525 15.579L21.5878 16.1051L21.5635 16.0696L21.5425 16.0321L22.3525 15.579ZM22.4576 15.7296L21.6991 16.2644L21.6984 16.2634L22.4576 15.7296ZM22.5829 15.8911L23.2973 15.2987L23.2988 15.3005L22.5829 15.8911ZM22.8812 19.8225L23.1807 20.701L20.7808 21.5191L22.0854 19.345L22.8812 19.8225ZM22.1789 16.2249L22.2708 17.1484L21.7784 17.1974L21.4633 16.8159L22.1789 16.2249ZM22.029 16.0309L22.7876 15.4962L22.7888 15.498L22.029 16.0309ZM21.873 15.7719L22.6673 15.2918L22.7507 15.4298L22.7826 15.5877L21.873 15.7719ZM20.1926 12.7694L19.3811 13.2198L19.381 13.2195L20.1926 12.7694ZM19.6975 12.627L19.2443 11.8171L19.2486 11.8147L19.6975 12.627ZM19.4902 12.8281L20.2862 13.3053L20.2861 13.3055L19.4902 12.8281ZM19.4805 13.3884L20.2909 12.936L20.292 12.9381L19.4805 13.3884ZM20.4445 15.1253L19.6331 15.5759L19.633 15.5757L20.4445 15.1253ZM20.3977 15.4405L19.7512 14.7746L19.7525 14.7734L20.3977 15.4405ZM20.0809 15.4767L19.6064 16.2744L19.6035 16.2726L20.0809 15.4767ZM15.4436 12.6947L15.9207 11.8987L15.921 11.8989L15.4436 12.6947ZM14.8017 12.8102L15.5647 13.3386L15.5645 13.3388L14.8017 12.8102ZM14.7317 13.1869L13.8313 13.412L13.831 13.4106L14.7317 13.1869ZM14.9426 13.4706L14.5274 14.3007L14.4957 14.2848L14.4653 14.2665L14.9426 13.4706ZM14.9434 13.4712L15.3585 12.6412L15.3903 12.6571L15.4208 12.6754L14.9434 13.4712ZM17.9755 15.2902L18.4529 14.4944L18.4533 14.4946L17.9755 15.2902ZM18.0652 15.6496L18.8611 16.1269L18.8605 16.1278L18.0652 15.6496ZM17.7059 15.7393L18.1833 14.9434L18.1835 14.9435L17.7059 15.7393ZM13.9834 13.5062L14.4605 12.7101L14.4608 12.7103L13.9834 13.5062ZM13.6341 13.4542L13.8603 14.3543L13.8586 14.3547L13.6341 13.4542ZM13.3502 13.6649L14.1467 14.1413L14.1455 14.1433L13.3502 13.6649ZM13.2977 14.0142L12.3974 14.2393L12.3968 14.237L13.2977 14.0142ZM13.5085 14.2981L13.0311 15.094L13.0306 15.0937L13.5085 14.2981ZM14.2328 14.7325L14.7102 13.9366L14.7103 13.9367L14.2328 14.7325ZM17.2308 16.5312L17.7083 15.7354L17.7086 15.7356L17.2308 16.5312ZM17.3205 16.8905L18.1164 17.3679L18.1158 17.3688L17.3205 16.8905ZM16.9612 16.9802L16.4843 17.7764L16.4837 17.7761L16.9612 16.9802ZM13.9285 15.1607L13.451 15.9566L13.4501 15.956L13.9285 15.1607ZM13.2951 15.3191L14.0907 15.797L14.0907 15.797L13.2951 15.3191ZM13.2426 15.6686L12.3423 15.8937L12.3417 15.8914L13.2426 15.6686ZM13.4535 15.9525L12.9761 16.7483L12.9753 16.7479L13.4535 15.9525ZM14.1971 16.3985L14.6745 15.6027L14.6746 15.6027L14.1971 16.3985ZM16.4862 17.772L16.9637 16.9761L16.964 16.9763L16.4862 17.772ZM16.5759 18.1313L17.3719 18.6086L17.3713 18.6096L16.5759 18.1313ZM16.2166 18.221L16.6941 17.4251L16.6951 17.4257L16.2166 18.221ZM13.9275 16.8475L14.4046 16.0515L14.405 16.0517L13.9275 16.8475ZM13.578 16.7956L13.3529 15.8952L13.3529 15.8952L13.578 16.7956ZM13.2941 17.006L12.498 16.529L12.4983 16.5285L13.2941 17.006ZM13.2417 17.3554L12.3413 17.5805L12.3408 17.5785L13.2417 17.3554ZM13.4526 17.6393L12.9751 18.4352L12.9743 18.4347L13.4526 17.6393ZM18.0933 20.4232L18.5707 19.6273L18.5707 19.6274L18.0933 20.4232ZM20.5377 20.8635L20.7234 21.7729L20.7233 21.7729L20.5377 20.8635ZM22.4319 19.5534L21.6359 19.076L21.6361 19.0757L22.4319 19.5534ZM22.1791 16.2248L22.0872 15.3013L22.5798 15.2523L22.8949 15.634L22.1791 16.2248ZM22.8812 19.8225L23.6772 20.2998C23.0537 21.3397 22.0314 22.04 20.8286 22.2857L20.6429 21.3764L20.4571 20.467C21.1748 20.3205 21.7422 19.9174 22.0852 19.3452L22.8812 19.8225ZM20.6429 21.3764L20.8283 22.2857C19.6397 22.5281 18.4035 22.3015 17.3469 21.668L17.8242 20.8721L18.3014 20.0761C18.9773 20.4813 19.7428 20.6127 20.4575 20.467L20.6429 21.3764ZM17.8242 20.8721L17.3467 21.6679L12.706 18.884L13.1835 18.0882L13.6609 17.2923L18.3016 20.0762L17.8242 20.8721ZM13.1835 18.0882L12.7061 18.884C12.2696 18.6222 11.9575 18.2021 11.8337 17.7074L12.734 17.482L13.6343 17.2567C13.6368 17.2667 13.6403 17.273 13.6434 17.2772C13.6466 17.2814 13.6517 17.2867 13.6609 17.2923L13.1835 18.0882ZM12.734 17.482L11.8334 17.7062C11.7104 17.2121 11.7882 16.6951 12.0495 16.2593L12.8455 16.7365L13.6415 17.2137C13.6359 17.223 13.6339 17.2303 13.6331 17.2356C13.6323 17.2409 13.6322 17.2481 13.6346 17.2579L12.734 17.482ZM12.8455 16.7365L12.0492 16.2597C12.2213 15.9723 12.4565 15.7569 12.709 15.6058L13.1856 16.4021L13.6623 17.1985C13.651 17.2052 13.645 17.2105 13.6425 17.2128C13.6404 17.215 13.6407 17.2151 13.6417 17.2133L12.8455 16.7365ZM13.1856 16.4021L12.6937 17.1891L12.6924 17.1883L13.1843 16.4013L13.6762 15.6143L13.6775 15.6151L13.1856 16.4021ZM13.1843 16.4013L12.7069 17.1972C12.2706 16.9355 11.9581 16.5152 11.8346 16.02L12.7351 15.7955L13.6357 15.571C13.638 15.5804 13.6413 15.5863 13.6443 15.5904C13.6474 15.5945 13.6525 15.5999 13.6617 15.6054L13.1843 16.4013ZM12.7351 15.7955L11.8349 16.0211C11.7108 15.526 11.7889 15.0083 12.0503 14.5721L12.8463 15.0494L13.6423 15.5266C13.6367 15.536 13.6346 15.5433 13.6339 15.5484C13.6331 15.5535 13.633 15.5604 13.6354 15.5699L12.7351 15.7955ZM12.8463 15.0494L12.0509 14.5712C12.2222 14.2862 12.4563 14.0653 12.7179 13.9109L13.1896 14.7102L13.6612 15.5095C13.6552 15.5131 13.6511 15.5164 13.6484 15.5191C13.6459 15.5216 13.6438 15.5242 13.6418 15.5275L12.8463 15.0494ZM13.1896 14.7102L12.6636 15.4749C12.2887 15.217 12.006 14.8316 11.8897 14.3662L12.7901 14.1412L13.6905 13.9161C13.6916 13.9204 13.693 13.9236 13.6954 13.9269C13.698 13.9306 13.7038 13.9375 13.7156 13.9456L13.1896 14.7102ZM12.7901 14.1412L11.8898 14.3667C11.7658 13.8716 11.8437 13.3538 12.1055 12.9176L12.9013 13.3953L13.697 13.873C13.6915 13.8821 13.6895 13.8891 13.6888 13.8941C13.6881 13.8991 13.6879 13.9059 13.6904 13.9157L12.7901 14.1412ZM12.9013 13.3953L12.1051 12.9183C12.3671 12.4811 12.7879 12.1693 13.282 12.0457L13.5071 12.9461L13.7321 13.8465C13.7222 13.849 13.716 13.8525 13.7119 13.8555C13.7078 13.8586 13.7027 13.8635 13.6974 13.8723L12.9013 13.3953ZM13.5071 12.9461L13.2811 12.046C13.4348 12.0074 13.5916 11.9882 13.7476 11.9882V12.9163V13.8444C13.7436 13.8444 13.7387 13.8449 13.733 13.8463L13.5071 12.9461ZM13.7476 12.9163L13.7486 11.9882C14.0639 11.9885 14.3645 12.0688 14.6308 12.2081L14.2006 13.0304L13.7703 13.8528C13.7615 13.8482 13.7552 13.8461 13.7517 13.8452C13.7483 13.8444 13.7468 13.8444 13.7467 13.8444L13.7476 12.9163ZM14.2006 13.0304L13.2735 12.9865C13.2895 12.649 13.3913 12.2964 13.6085 11.9831L14.3711 12.512L15.1338 13.0409C15.1365 13.037 15.129 13.0448 15.1276 13.0743L14.2006 13.0304ZM14.3711 12.512L13.6083 11.9833C14.1962 11.1352 15.3359 10.937 16.1906 11.4499L15.7131 12.2457L15.2356 13.0415C15.2085 13.0253 15.182 13.0227 15.1612 13.0268C15.1409 13.0309 15.1353 13.0387 15.1339 13.0407L14.3711 12.512ZM15.7131 12.2457L16.1905 11.4498L19.9907 13.7293L19.5133 14.5252L19.0359 15.3211L15.2357 13.0416L15.7131 12.2457ZM19.5133 14.5252L18.7019 14.9757L18.212 14.0934L19.0235 13.6429L19.8349 13.1924L20.3247 14.0747L19.5133 14.5252ZM19.0235 13.6429L18.213 14.0951C17.8624 13.4668 17.8764 12.6968 18.2457 12.0809L19.0417 12.5583L19.8376 13.0356C19.8084 13.0843 19.8086 13.1453 19.8339 13.1907L19.0235 13.6429ZM19.0417 12.5583L18.246 12.0805C18.427 11.7791 18.6841 11.531 18.9893 11.3598L19.4433 12.1693L19.8973 12.9788C19.8709 12.9935 19.8505 13.0141 19.8374 13.036L19.0417 12.5583ZM19.4433 12.1693L18.9938 11.3573C19.2715 11.2036 19.5744 11.13 19.8728 11.13V12.0581V12.9862C19.876 12.9862 19.8796 12.9858 19.8835 12.9848C19.8876 12.9838 19.8908 12.9824 19.8928 12.9813L19.4433 12.1693ZM19.8728 12.0581L19.8732 11.13C20.5075 11.1303 21.1303 11.4649 21.4629 12.0659L20.6509 12.5153L19.8389 12.9648C19.8404 12.9674 19.8428 12.9709 19.8462 12.9743C19.8495 12.9776 19.8528 12.9801 19.8558 12.9818C19.861 12.9848 19.8663 12.9862 19.8723 12.9862L19.8728 12.0581ZM20.6509 12.5153L21.4624 12.0649C22.0265 13.0814 23.0887 14.9941 23.1625 15.126L22.3525 15.579L21.5425 16.0321C21.4667 15.8967 20.4022 13.9798 19.8394 12.9657L20.6509 12.5153ZM22.3525 15.579L23.1171 15.053C23.1302 15.0721 23.176 15.1378 23.2168 15.1958L22.4576 15.7296L21.6984 16.2634C21.6568 16.2043 21.6065 16.1323 21.5878 16.1051L22.3525 15.579ZM22.4576 15.7296L23.2161 15.1948C23.2353 15.222 23.2604 15.2541 23.2973 15.2987L22.5829 15.8911L21.8684 16.4835C21.8178 16.4225 21.7583 16.3483 21.6991 16.2644L22.4576 15.7296ZM22.5829 15.8911L23.2988 15.3005C24.4967 16.7527 24.6451 18.6867 23.677 20.3001L22.8812 19.8225L22.0854 19.345C22.6473 18.4086 22.5668 17.33 21.867 16.4817L22.5829 15.8911ZM22.8812 19.8225L22.5817 18.9441L22.5817 18.9441L22.8812 19.8225L23.1807 20.701L23.1807 20.701L22.8812 19.8225ZM22.1789 16.2249L21.4633 16.8159C21.4046 16.7449 21.3359 16.6591 21.2691 16.5637L22.029 16.0309L22.7888 15.498C22.8151 15.5355 22.8488 15.5786 22.8944 15.6338L22.1789 16.2249ZM22.029 16.0309L21.2703 16.5655C21.2119 16.4826 21.1491 16.3946 21.1074 16.3256C21.0795 16.2794 21.0422 16.212 21.0107 16.1261C20.98 16.0425 20.9664 15.9709 20.9634 15.9561L21.873 15.7719L22.7826 15.5877C22.785 15.5993 22.7758 15.548 22.7532 15.4865C22.7298 15.4227 22.7042 15.379 22.6963 15.3659C22.6925 15.3597 22.6911 15.3576 22.694 15.362C22.6968 15.3662 22.7017 15.3736 22.71 15.3856C22.7274 15.4107 22.7512 15.4445 22.7876 15.4962L22.029 16.0309ZM21.873 15.7719L21.0787 16.252C20.9014 15.9586 20.4841 15.2069 19.3811 13.2198L20.1926 12.7694L21.0041 12.3189C22.1225 14.334 22.5133 15.0371 22.6673 15.2918L21.873 15.7719ZM20.1926 12.7694L19.381 13.2195C19.5312 13.4905 19.8734 13.5902 20.1464 13.4393L19.6975 12.627L19.2486 11.8147C19.8742 11.469 20.6591 11.697 21.0042 12.3192L20.1926 12.7694ZM19.6975 12.627L20.1507 13.4369C20.2052 13.4064 20.2537 13.3595 20.2862 13.3053L19.4902 12.8281L18.6942 12.3508C18.8284 12.1271 19.0163 11.9447 19.2443 11.8171L19.6975 12.627ZM19.4902 12.8281L20.2861 13.3055C20.3526 13.1947 20.3571 13.0545 20.2909 12.936L19.4805 13.3884L18.6702 13.8409C18.4095 13.374 18.4219 12.8049 18.6943 12.3507L19.4902 12.8281ZM19.4805 13.3884L20.292 12.9381L21.256 14.6749L20.4445 15.1253L19.633 15.5757L18.669 13.8388L19.4805 13.3884ZM20.4445 15.1253L21.2558 14.6747C21.5171 15.1452 21.4304 15.7329 21.043 16.1076L20.3977 15.4405L19.7525 14.7734C19.5354 14.9834 19.4869 15.3127 19.6331 15.5759L20.4445 15.1253ZM20.3977 15.4405L21.0443 16.1063C20.6538 16.4855 20.0635 16.5462 19.6064 16.2744L20.0809 15.4767L20.5554 14.6791C20.3024 14.5286 19.9718 14.5605 19.7512 14.7747L20.3977 15.4405ZM20.0809 15.4767L19.6035 16.2726L14.9661 13.4906L15.4436 12.6947L15.921 11.8989L20.5584 14.6809L20.0809 15.4767ZM15.4436 12.6947L14.9664 13.4908C15.057 13.545 15.1592 13.5609 15.2552 13.5437C15.3511 13.5265 15.4749 13.4683 15.5647 13.3386L14.8017 12.8102L14.0387 12.2818C14.4854 11.6367 15.3348 11.5475 15.9207 11.8987L15.4436 12.6947ZM14.8017 12.8102L15.5645 13.3388C15.637 13.2343 15.665 13.0944 15.6324 12.9631L14.7317 13.1869L13.831 13.4106C13.7334 13.0179 13.811 12.6104 14.0389 12.2816L14.8017 12.8102ZM14.7317 13.1869L15.6321 12.9618C15.6017 12.8402 15.5231 12.7365 15.4199 12.6746L14.9426 13.4706L14.4653 14.2665C14.1498 14.0774 13.9214 13.7723 13.8313 13.412L14.7317 13.1869ZM14.9426 13.4706L15.3577 12.6405C15.4416 12.6825 15.5032 12.7292 15.5423 12.7622C15.5615 12.7785 15.5763 12.7924 15.5853 12.801C15.5899 12.8054 15.5935 12.809 15.5957 12.8112C15.5969 12.8123 15.5978 12.8132 15.5983 12.8137C15.5986 12.814 15.5988 12.8143 15.599 12.8144C15.5991 12.8145 15.5991 12.8145 15.5992 12.8146C15.5992 12.8146 15.5992 12.8146 15.5992 12.8146C15.5992 12.8146 15.5992 12.8146 15.5992 12.8146C15.5992 12.8146 15.5992 12.8146 15.5992 12.8146C15.5995 12.8149 15.5978 12.8132 15.5958 12.8113C15.5937 12.8091 15.59 12.8055 15.5855 12.8012C15.5766 12.7927 15.5618 12.7788 15.5427 12.7626C15.5038 12.7297 15.4422 12.683 15.3585 12.6412L14.9434 13.4712L14.5283 14.3013C14.4444 14.2594 14.3827 14.2126 14.3437 14.1796C14.3245 14.1633 14.3096 14.1494 14.3007 14.1408C14.2961 14.1364 14.2924 14.1329 14.2902 14.1307C14.2891 14.1295 14.2882 14.1286 14.2876 14.1281C14.2874 14.1278 14.2871 14.1276 14.287 14.1274C14.2869 14.1274 14.2869 14.1273 14.2868 14.1273C14.2868 14.1273 14.2868 14.1272 14.2868 14.1272C14.2868 14.1272 14.2868 14.1272 14.2868 14.1272C14.2868 14.1272 14.2868 14.1272 14.2868 14.1272C14.2865 14.1269 14.2882 14.1286 14.2901 14.1306C14.2923 14.1327 14.2959 14.1363 14.3005 14.1406C14.3094 14.1492 14.3242 14.163 14.3433 14.1792C14.3822 14.2122 14.4438 14.2588 14.5274 14.3007L14.9426 13.4706ZM14.9434 13.4712L15.4208 12.6754L18.4529 14.4944L17.9755 15.2902L17.498 16.0861L14.4659 14.2671L14.9434 13.4712ZM17.9755 15.2902L18.4533 14.4946C19.0167 14.8329 19.199 15.5635 18.8611 16.1269L18.0652 15.6496L17.2693 15.1722C17.0803 15.4873 17.1822 15.8965 17.4977 16.0859L17.9755 15.2902ZM18.0652 15.6496L18.8605 16.1278C18.523 16.6891 17.7933 16.8742 17.2282 16.535L17.7059 15.7393L18.1835 14.9435C17.867 14.7535 17.4584 14.8576 17.2698 15.1713L18.0652 15.6496ZM17.7059 15.7393L17.2284 16.5351L13.506 14.3021L13.9834 13.5062L14.4608 12.7103L18.1833 14.9434L17.7059 15.7393ZM13.9834 13.5062L13.5063 14.3022C13.6105 14.3647 13.7391 14.3848 13.8603 14.3543L13.6341 13.4542L13.4078 12.5541C13.7679 12.4636 14.1451 12.521 14.4605 12.7101L13.9834 13.5062ZM13.6341 13.4542L13.8586 14.3547C13.9791 14.3247 14.0839 14.2463 14.1467 14.1413L13.3502 13.6649L12.5537 13.1885C12.7435 12.8713 13.0496 12.6434 13.4096 12.5537L13.6341 13.4542ZM13.3502 13.6649L14.1455 14.1433C14.2092 14.0374 14.2278 13.9092 14.1987 13.7915L13.2977 14.0142L12.3968 14.237C12.3086 13.8805 12.3639 13.504 12.5549 13.1865L13.3502 13.6649ZM13.2977 14.0142L14.1981 13.7891C14.1679 13.6682 14.0898 13.5646 13.9863 13.5025L13.5085 14.2981L13.0306 15.0937C12.7152 14.9043 12.4873 14.599 12.3974 14.2393L13.2977 14.0142ZM13.5085 14.2981L13.9858 13.5022L14.7102 13.9366L14.2328 14.7325L13.7555 15.5285L13.0311 15.094L13.5085 14.2981ZM14.2328 14.7325L14.7103 13.9367L17.7083 15.7354L17.2308 16.5312L16.7533 17.3271L13.7553 15.5284L14.2328 14.7325ZM17.2308 16.5312L17.7086 15.7356C18.272 16.0739 18.4543 16.8045 18.1164 17.3679L17.3205 16.8905L16.5246 16.4132C16.3356 16.7282 16.4375 17.1374 16.753 17.3269L17.2308 16.5312ZM17.3205 16.8905L18.1158 17.3688C17.7778 17.931 17.0481 18.1142 16.4843 17.7764L16.9612 16.9802L17.4381 16.184C17.1228 15.9952 16.7142 16.0977 16.5251 16.4123L17.3205 16.8905ZM16.9612 16.9802L16.4837 17.7761L13.451 15.9566L13.9285 15.1607L14.4059 14.3649L17.4386 16.1844L16.9612 16.9802ZM13.9285 15.1607L13.4501 15.956C13.673 16.0901 13.9588 16.0166 14.0907 15.797L13.2951 15.3191L12.4995 14.8413C12.8938 14.1848 13.7478 13.969 14.4068 14.3654L13.9285 15.1607ZM13.2951 15.3191L14.0907 15.797C14.154 15.6916 14.1728 15.5638 14.1436 15.4458L13.2426 15.6686L12.3417 15.8914C12.2535 15.5347 12.309 15.1585 12.4995 14.8413L13.2951 15.3191ZM13.2426 15.6686L14.143 15.4435C14.1126 15.3218 14.0341 15.2186 13.9318 15.1571L13.4535 15.9525L12.9753 16.7479C12.6608 16.5588 12.4324 16.2541 12.3423 15.8937L13.2426 15.6686ZM13.4535 15.9525L13.931 15.1566L14.6745 15.6027L14.1971 16.3985L13.7196 17.1944L12.9761 16.7483L13.4535 15.9525ZM14.1971 16.3985L14.6746 15.6027L16.9637 16.9761L16.4862 17.772L16.0088 18.5678L13.7196 17.1944L14.1971 16.3985ZM16.4862 17.772L16.964 16.9763C17.5274 17.3147 17.7097 18.0453 17.3719 18.6086L16.5759 18.1313L15.78 17.6539C15.591 17.969 15.693 18.3782 16.0084 18.5676L16.4862 17.772ZM16.5759 18.1313L17.3713 18.6096C17.0343 19.17 16.3045 19.357 15.7382 19.0163L16.2166 18.221L16.6951 17.4257C16.3774 17.2346 15.9687 17.3402 15.7806 17.653L16.5759 18.1313ZM16.2166 18.221L15.7391 19.0168L13.45 17.6434L13.9275 16.8475L14.405 16.0517L16.6941 17.4251L16.2166 18.221ZM13.9275 16.8475L13.4503 17.6436C13.5549 17.7062 13.6835 17.7258 13.8031 17.6959L13.578 16.7956L13.3529 15.8952C13.7126 15.8053 14.0889 15.8622 14.4046 16.0515L13.9275 16.8475ZM13.578 16.7956L13.8031 17.6959C13.9225 17.6661 14.0268 17.5887 14.09 17.4835L13.2941 17.006L12.4983 16.5285C12.6884 16.2116 12.9947 15.9847 13.3529 15.8952L13.578 16.7956ZM13.2941 17.006L14.0903 17.4829C14.1527 17.3788 14.172 17.2515 14.1426 17.1324L13.2417 17.3554L12.3408 17.5785C12.2522 17.2209 12.3087 16.845 12.498 16.529L13.2941 17.006ZM13.2417 17.3554L14.142 17.1303C14.1116 17.0087 14.0331 16.9054 13.9308 16.8439L13.4526 17.6393L12.9743 18.4347C12.6598 18.2456 12.4314 17.941 12.3413 17.5805L13.2417 17.3554ZM13.4526 17.6393L13.93 16.8434L18.5707 19.6273L18.0933 20.4232L17.6158 21.2191L12.9751 18.4352L13.4526 17.6393ZM18.0933 20.4232L18.5707 19.6274C19.1347 19.9657 19.7678 20.0734 20.3522 19.9542L20.5377 20.8635L20.7233 21.7729C19.6618 21.9895 18.5579 21.7843 17.6158 21.2191L18.0933 20.4232ZM20.5377 20.8635L20.3521 19.9542C20.926 19.837 21.3702 19.519 21.6359 19.076L22.4319 19.5534L23.2278 20.0308C22.6794 20.945 21.7782 21.5575 20.7234 21.7729L20.5377 20.8635ZM22.4319 19.5534L21.6361 19.0757C22.0907 18.3185 22.03 17.5021 21.4634 16.8156L22.1791 16.2248L22.8949 15.634C23.96 16.9244 24.0886 18.5967 23.2276 20.031L22.4319 19.5534ZM22.1791 16.2248L22.2711 17.1484L22.2708 17.1484L22.1789 16.2249L22.0869 15.3013L22.0872 15.3013L22.1791 16.2248Z" fill="#4CAF4F" mask="url(#path-4-inside-2_1_2137)"/>
</svg>
