<svg width="35" height="34" viewBox="0 0 35 34" fill="none" xmlns="http://www.w3.org/2000/svg">
    <path d="M28.7673 29.3838V26.5995C28.7673 25.1227 28.1806 23.7063 27.1363 22.662C26.092 21.6177 24.6756 21.031 23.1988 21.031H21.8066C21.4374 21.031 21.0833 20.8843 20.8222 20.6232C20.5612 20.3622 20.4145 20.0081 20.4145 19.6388V12.6782C20.4145 11.9397 20.1211 11.2315 19.599 10.7094C19.0768 10.1872 18.3687 9.89387 17.6302 9.89387C16.8918 9.89387 16.1836 10.1872 15.6614 10.7094C15.1393 11.2315 14.8459 11.9397 14.8459 12.6782V25.2074L11.5048 20.7526C11.2455 20.4068 10.9092 20.1261 10.5225 19.9328C10.1359 19.7395 9.70963 19.6388 9.27738 19.6388H8.67319C7.46899 19.6388 6.4931 20.6147 6.4931 21.8189C6.4931 22.2143 6.6003 22.6027 6.80355 22.941L10.6695 29.3838M17.6302 5.71746V4.32532V5.71746ZM25.983 14.0703H27.3752H25.983ZM7.88524 14.0703H9.27738H7.88524ZM11.147 7.5871L10.1628 6.60286L11.147 7.5871ZM24.1134 7.5871L25.0976 6.60286L24.1134 7.5871Z" fill="#4CAF4F"/>
    <path d="M28.7673 29.3838V26.5995C28.7673 25.1227 28.1806 23.7063 27.1363 22.662C26.092 21.6177 24.6756 21.031 23.1988 21.031H21.8066C21.4374 21.031 21.0833 20.8843 20.8222 20.6232C20.5612 20.3622 20.4145 20.0081 20.4145 19.6388V12.6782C20.4145 11.9397 20.1211 11.2315 19.599 10.7094C19.0768 10.1872 18.3687 9.89387 17.6302 9.89387V9.89387C16.8918 9.89387 16.1836 10.1872 15.6614 10.7094C15.1393 11.2315 14.8459 11.9397 14.8459 12.6782V25.2074L11.5048 20.7526C11.2455 20.4068 10.9092 20.1261 10.5225 19.9328C10.1359 19.7395 9.70963 19.6388 9.27738 19.6388H8.67319C7.46899 19.6388 6.4931 20.6147 6.4931 21.8189C6.4931 22.2143 6.6003 22.6027 6.80355 22.941L10.6695 29.3838M17.6302 5.71746V4.32532M25.983 14.0703H27.3752M7.88524 14.0703H9.27738M11.147 7.5871L10.1628 6.60286M24.1134 7.5871L25.0976 6.60286" stroke="#4CAF4F" stroke-width="1.39214" stroke-linecap="round" stroke-linejoin="round"/>
</svg>