<svg width="12" height="13" viewBox="0 0 12 13" fill="none" xmlns="http://www.w3.org/2000/svg">
    <path fill-rule="evenodd" clip-rule="evenodd" d="M5.98915 0.834473C4.37598 0.834473 4.17353 0.841526 3.53995 0.870359C2.9076 0.899316 2.47597 0.999427 2.0983 1.14632C1.70763 1.29803 1.37623 1.50097 1.04607 1.83125C0.71567 2.16141 0.512725 2.49281 0.360516 2.88335C0.213257 3.26115 0.113022 3.6929 0.0845605 4.325C0.0562224 4.95859 0.0487976 5.16116 0.0487976 6.77433C0.0487976 8.38749 0.0559749 8.58932 0.0846842 9.22291C0.113765 9.85525 0.213876 10.2869 0.36064 10.6646C0.512478 11.0552 0.715423 11.3866 1.0457 11.7168C1.37574 12.0472 1.70713 12.2506 2.09755 12.4023C2.47548 12.5492 2.90723 12.6493 3.53945 12.6783C4.17304 12.7071 4.37536 12.7142 5.98841 12.7142C7.60169 12.7142 7.80353 12.7071 8.43711 12.6783C9.06946 12.6493 9.50158 12.5492 9.87951 12.4023C10.2701 12.2506 10.6009 12.0472 10.931 11.7168C11.2614 11.3866 11.4643 11.0552 11.6165 10.6647C11.7626 10.2869 11.8628 9.85513 11.8925 9.22303C11.921 8.58945 11.9284 8.38749 11.9284 6.77433C11.9284 5.16116 11.921 4.95871 11.8925 4.32513C11.8628 3.69278 11.7626 3.26115 11.6165 2.88348C11.4643 2.49281 11.2614 2.16141 10.931 1.83125C10.6006 1.50085 10.2702 1.29791 9.87913 1.14632C9.50047 0.999427 9.06859 0.899316 8.43624 0.870359C7.80266 0.841526 7.60095 0.834473 5.98729 0.834473H5.98915ZM5.45627 1.90487C5.61442 1.90462 5.79088 1.90487 5.98912 1.90487C7.57506 1.90487 7.76303 1.91056 8.38932 1.93902C8.96845 1.9655 9.28277 2.06227 9.49215 2.14358C9.76934 2.25124 9.96697 2.37993 10.1747 2.58783C10.3826 2.79572 10.5113 2.99372 10.6192 3.27091C10.7005 3.48004 10.7974 3.79436 10.8238 4.3735C10.8523 4.99966 10.8584 5.18775 10.8584 6.77295C10.8584 8.35815 10.8523 8.54624 10.8238 9.1724C10.7973 9.75154 10.7005 10.0659 10.6192 10.275C10.5116 10.5522 10.3826 10.7496 10.1747 10.9573C9.96684 11.1652 9.76947 11.2939 9.49215 11.4016C9.28302 11.4833 8.96845 11.5798 8.38932 11.6063C7.76316 11.6347 7.57506 11.6409 5.98912 11.6409C4.40306 11.6409 4.21509 11.6347 3.58893 11.6063C3.00979 11.5795 2.69547 11.4828 2.48597 11.4015C2.20878 11.2938 2.01078 11.1651 1.80289 10.9572C1.59499 10.7493 1.46629 10.5518 1.35839 10.2745C1.27708 10.0654 1.18019 9.75104 1.15383 9.17191C1.12537 8.54575 1.11968 8.35765 1.11968 6.77146C1.11968 5.18528 1.12537 4.99817 1.15383 4.37201C1.18031 3.79287 1.27708 3.47856 1.35839 3.26918C1.46605 2.99198 1.59499 2.79399 1.80289 2.58609C2.01078 2.3782 2.20878 2.2495 2.48597 2.1416C2.69535 2.05992 3.00979 1.9634 3.58893 1.93679C4.13688 1.91204 4.34923 1.90462 5.45627 1.90338V1.90487ZM9.15977 2.89113C8.76625 2.89113 8.44699 3.21003 8.44699 3.60367C8.44699 3.99718 8.76625 4.31645 9.15977 4.31645C9.55329 4.31645 9.87255 3.99718 9.87255 3.60367C9.87255 3.21015 9.55329 2.89113 9.15977 2.89113ZM5.98916 3.72395C4.30459 3.72395 2.93879 5.08974 2.93879 6.77431C2.93879 8.45888 4.30459 9.82405 5.98916 9.82405C7.67373 9.82405 9.03903 8.45888 9.03903 6.77431C9.03903 5.08974 7.67373 3.72395 5.98916 3.72395ZM5.98913 4.79436C7.08256 4.79436 7.96909 5.68076 7.96909 6.77431C7.96909 7.86774 7.08256 8.75426 5.98913 8.75426C4.89558 8.75426 4.00918 7.86774 4.00918 6.77431C4.00918 5.68076 4.89558 4.79436 5.98913 4.79436Z" fill="white"/>
</svg>
