<svg width="35" height="34" viewBox="0 0 35 34" fill="none" xmlns="http://www.w3.org/2000/svg">
    <g clip-path="url(#clip0_1_2130)">
        <path d="M12.4102 6.3866C13.9494 6.38669 15.4537 6.83084 16.7441 7.66199L16.999 7.83289C18.2601 8.71533 19.2385 9.94148 19.8193 11.3622L19.9297 11.6493C20.4571 13.0955 20.5556 14.6609 20.2168 16.1581L20.1436 16.4559C19.7201 18.0423 18.8189 19.4605 17.5625 20.5175L17.1396 20.8729L17.6436 21.1005C19.7131 22.037 21.4937 23.5112 22.8008 25.369L22.8057 25.3759L22.8115 25.3827C22.8876 25.4801 22.9479 25.5887 22.9912 25.704L23.0293 25.8221C23.0713 25.9817 23.0799 26.1482 23.0557 26.3114C23.0375 26.4337 23.0009 26.5521 22.9473 26.663L22.8877 26.7714C22.8227 26.8768 22.7426 26.9718 22.6494 27.0526L22.5527 27.1288C22.4179 27.2237 22.2648 27.2899 22.1035 27.3241C21.9825 27.3497 21.858 27.3573 21.7354 27.3456L21.6133 27.327C21.4514 27.2948 21.2972 27.23 21.1611 27.1366H21.1621C21.0261 27.0432 20.9095 26.9235 20.8213 26.7841L20.8174 26.7772L20.8125 26.7704L20.6309 26.5204C19.7683 25.3672 18.6732 24.4081 17.416 23.7059L17.1445 23.5594C15.6822 22.7994 14.0582 22.4023 12.4102 22.4022C10.8649 22.4022 9.34071 22.7518 7.95117 23.4218L7.6748 23.5594C6.30361 24.2721 5.11249 25.285 4.18848 26.5204L4.00684 26.7704L4.00586 26.7714C3.92232 26.8913 3.81815 26.9949 3.69824 27.077L3.57324 27.1512C3.44367 27.2187 3.30343 27.2621 3.15918 27.2792L3.01367 27.288H3.01172C2.82409 27.2886 2.63984 27.2443 2.47363 27.161L2.31445 27.0653L2.3125 27.0643L2.21777 26.9901C2.00629 26.807 1.86371 26.5552 1.81543 26.2772C1.76718 25.9992 1.81669 25.7143 1.9541 25.4706L2.01855 25.369C3.32562 23.5112 5.10627 22.037 7.17578 21.1005L7.67969 20.8729L7.25684 20.5175C6.07898 19.5266 5.21326 18.2185 4.76074 16.7518L4.67578 16.4559C4.27889 14.9689 4.31996 13.4013 4.79004 11.9403L4.88965 11.6493C5.41703 10.2032 6.34932 8.94216 7.57227 8.01453L7.82031 7.83289C9.16554 6.89161 10.7683 6.3866 12.4102 6.3866ZM23.0459 6.39636H23.0479C24.5879 6.39196 26.0942 6.83266 27.3867 7.66199L27.6426 7.83386C28.9057 8.71491 29.8852 9.94084 30.4668 11.3622L30.5781 11.6493C31.106 13.0961 31.2038 14.6624 30.8633 16.16L30.79 16.4579C30.3645 18.0446 29.4599 19.462 28.2002 20.5165L27.7754 20.8719L28.2803 21.1005C30.2206 21.9785 31.9072 23.329 33.1875 25.0253L33.4375 25.369L33.4395 25.371C33.5092 25.4685 33.5636 25.5761 33.6016 25.6893L33.6338 25.8036C33.6605 25.9205 33.6698 26.0409 33.6611 26.16L33.6465 26.2782C33.626 26.3962 33.5881 26.5106 33.5342 26.6171L33.4746 26.7206C33.4102 26.8215 33.331 26.9118 33.2402 26.9891L33.1455 27.0624L33.1416 27.0653C32.9383 27.2106 32.6942 27.2878 32.4443 27.287C32.2492 27.2857 32.0569 27.2384 31.8838 27.1483C31.754 27.0807 31.6378 26.9906 31.54 26.8827L31.4482 26.7684C30.4992 25.4223 29.241 24.3234 27.7793 23.5643C26.4087 22.8526 24.8965 22.4589 23.3555 22.411L23.0469 22.4061L22.9258 22.4003C22.6869 22.3765 22.4601 22.2829 22.2744 22.1307L22.1855 22.0497C21.9571 21.8213 21.8282 21.5114 21.8281 21.1884C21.8281 20.9055 21.9267 20.6327 22.1045 20.4159L22.1855 20.327C22.414 20.0987 22.7239 19.9706 23.0469 19.9706C24.4314 19.9705 25.7627 19.4542 26.7842 18.5292L26.9844 18.3387C28.0285 17.2945 28.6152 15.8779 28.6152 14.4012C28.6152 13.0168 28.0996 11.6853 27.1748 10.6639L26.9844 10.4637C26.0053 9.48462 24.6987 8.90792 23.3223 8.83972L23.0469 8.83289C22.6652 8.83219 22.2849 8.87147 21.9121 8.95007L21.541 9.04187L21.4199 9.07214C21.3014 9.09499 21.18 9.09969 21.0596 9.08679C20.9389 9.07387 20.8211 9.04353 20.71 8.99597L20.6016 8.94324C20.4954 8.88479 20.3985 8.81114 20.3145 8.72449L20.2354 8.63367C20.1599 8.53862 20.0988 8.43277 20.0547 8.32019L20.0166 8.20593C19.9837 8.08917 19.9689 7.96836 19.9717 7.84753L19.9805 7.72742C19.9953 7.60712 20.0279 7.49003 20.0771 7.37976L20.1318 7.27234C20.1919 7.16713 20.2665 7.07085 20.3545 6.98816L20.4473 6.91003C20.5433 6.83626 20.6497 6.77749 20.7627 6.73523L20.8779 6.69812L20.8838 6.69714C21.4989 6.52202 22.1329 6.42252 22.7715 6.40125L23.0459 6.39636ZM13.4961 8.94031C12.4834 8.73888 11.4361 8.82293 10.4707 9.18152L10.2783 9.25671C9.32452 9.65184 8.50085 10.3041 7.89746 11.1385L7.7793 11.3075C7.16748 12.2231 6.84089 13.3 6.84082 14.4012C6.84082 15.7858 7.35629 17.118 8.28125 18.1395L8.47168 18.3387C9.51599 19.3831 10.9333 19.9706 12.4102 19.9706C13.4425 19.9705 14.4534 19.6834 15.3301 19.1434L15.5029 19.0321C16.3614 18.4585 17.0426 17.6577 17.4717 16.7216L17.5547 16.5321C17.9496 15.5784 18.0705 14.535 17.9072 13.5184L17.8711 13.3153C17.6696 12.3025 17.1911 11.3669 16.4902 10.6122L16.3477 10.4637C15.6175 9.7336 14.6992 9.2224 13.6973 8.98425L13.4961 8.94031Z" fill="#4CAF4F" stroke="#4CAF4F" stroke-width="0.696069"/>
    </g>
    <defs>
        <clipPath id="clip0_1_2130">
            <rect width="33.4113" height="33.4113" fill="white" transform="translate(0.924561 0.306152)"/>
        </clipPath>
    </defs>
</svg>