<svg width="34" height="34" viewBox="0 0 34 34" fill="none" xmlns="http://www.w3.org/2000/svg">
    <path d="M7.09076 5.71716H26.9286C28.0103 5.71716 29.0505 6.12058 29.8486 6.84314L30.0048 6.99158C30.8206 7.80739 31.2792 8.91402 31.2792 10.0677V23.641C31.2792 24.7948 30.8207 25.9013 30.0048 26.7172C29.189 27.533 28.0825 27.9916 26.9286 27.9916H7.09076C6.00914 27.9915 4.96883 27.5891 4.17084 26.8666L4.01459 26.7172C3.1989 25.9013 2.74017 24.7947 2.74017 23.641V10.0677C2.74023 8.98604 3.14347 7.94585 3.86615 7.14783L4.01459 6.99158C4.77938 6.22678 5.79979 5.77644 6.87494 5.72302L7.09076 5.71716ZM4.13275 23.641C4.13275 24.3275 4.3714 24.9896 4.80267 25.516L4.99896 25.7328C5.5537 26.2875 6.30625 26.5999 7.09076 26.6H26.9286C27.7132 26.6 28.4657 26.2876 29.0204 25.7328C29.5752 25.178 29.8876 24.4256 29.8876 23.641V13.3744H4.13275V23.641ZM22.2304 20.3353H25.3632C25.5014 20.3354 25.6356 20.376 25.749 20.4515L25.8554 20.5385C25.9858 20.6689 26.0584 20.8462 26.0585 21.0306C26.0585 21.2151 25.9857 21.3923 25.8554 21.5228C25.725 21.6533 25.5477 21.7268 25.3632 21.7269H22.2304C22.0458 21.7269 21.8687 21.6533 21.7382 21.5228C21.6078 21.3923 21.5341 21.2151 21.5341 21.0306C21.5342 20.8923 21.5757 20.7583 21.6513 20.6449L21.7382 20.5385C21.8687 20.408 22.0459 20.3354 22.2304 20.3353ZM7.09076 7.10974C6.30625 7.1098 5.5537 7.42122 4.99896 7.97595C4.44423 8.53069 4.13281 9.28324 4.13275 10.0677V11.9818H29.8876V10.0677C29.8876 9.3813 29.649 8.71911 29.2177 8.19275L29.0204 7.97595C28.4657 7.42133 27.7131 7.10974 26.9286 7.10974H7.09076Z" fill="#4CAF4F" stroke="#4CAF4F" stroke-width="0.696069"/>
</svg>
