<svg width="309" height="230" viewBox="0 0 309 230" fill="none" xmlns="http://www.w3.org/2000/svg">
    <path d="M154.599 229.353C220.42 229.353 273.778 226.238 273.778 222.395C273.778 218.552 220.42 215.437 154.599 215.437C88.7779 215.437 35.4194 218.552 35.4194 222.395C35.4194 226.238 88.7779 229.353 154.599 229.353Z" fill="#F5F5F5"/>
    <path d="M215.605 66.9987L209.508 64.54C209.508 64.54 201.462 79.2123 199.157 79.9561C196.022 80.9642 189.531 83.7671 185.683 84.2588C185.16 84.8735 184.306 86.7851 184.386 87.4797C189.555 89.207 200.915 86.9142 203.349 85.1071C208.887 81.0072 215.605 66.9987 215.605 66.9987Z" fill="#E58A7B"/>
    <path d="M217.48 63.6612C218.617 67.8594 212.458 76.305 212.458 76.305L204.387 71.781C204.387 71.781 205.9 68.3081 207.744 64.7737C210.7 59.0634 216.183 58.8728 217.48 63.6612Z" fill="#4CAF4F"/>
    <path opacity="0.2" d="M217.48 63.6612C218.617 67.8594 212.458 76.305 212.458 76.305L204.387 71.781C204.387 71.781 205.9 68.3081 207.744 64.7737C210.7 59.0634 216.183 58.8728 217.48 63.6612Z" fill="black"/>
    <path opacity="0.2" d="M207.59 73.5881L210.768 75.3706L211.327 65.6157C209.477 67.0356 208.174 71.3138 207.59 73.5881Z" fill="black"/>
    <path d="M212.169 60.5017C212.169 60.5017 205.887 74.4794 209.551 100.505H234.304C234.697 96.7061 233.394 78.1675 238.109 60.2681C235.393 59.7375 232.646 59.3864 229.884 59.2171C226.381 59.0141 222.87 59.0141 219.367 59.2171C216.939 59.4636 214.533 59.8931 212.169 60.5017Z" fill="#4CAF4F"/>
    <path opacity="0.2" d="M212.169 60.5017C212.169 60.5017 205.887 74.4794 209.551 100.505H234.304C234.697 96.7061 233.394 78.1675 238.109 60.2681C235.393 59.7375 232.646 59.3864 229.884 59.2171C226.381 59.0141 222.87 59.0141 219.367 59.2171C216.939 59.4636 214.533 59.8931 212.169 60.5017Z" fill="black"/>
    <g style="mix-blend-mode:multiply">
        <path d="M206.428 222.948C206.391 223.612 215.777 224.147 227.389 224.147C239 224.147 248.453 223.612 248.49 222.948C248.527 222.284 239.147 221.756 227.53 221.756C215.913 221.756 206.471 222.29 206.428 222.948Z" fill="#E8ECF1"/>
    </g>
    <path d="M222.951 205.505L218.561 207.205L222.342 216.974L226.733 215.275L222.951 205.505Z" fill="#E58A7B"/>
    <path d="M242.528 218.221H237.899L236.203 207.507H240.832L242.528 218.221Z" fill="#E58A7B"/>
    <path d="M237.58 217.686H242.78C242.87 217.687 242.957 217.719 243.026 217.777C243.095 217.836 243.14 217.917 243.155 218.006L243.825 222.118C243.839 222.221 243.831 222.326 243.801 222.426C243.771 222.526 243.72 222.618 243.651 222.696C243.582 222.774 243.497 222.836 243.402 222.879C243.307 222.921 243.204 222.943 243.1 222.942C241.286 222.911 240.414 222.801 238.127 222.801C236.719 222.801 233.824 222.948 231.87 222.948C229.915 222.948 229.786 221.03 230.591 220.852C234.205 220.071 235.607 219.008 236.812 217.975C237.024 217.789 237.297 217.686 237.58 217.686Z" fill="#263238"/>
    <path d="M222.213 216.101L227.13 214.662C227.218 214.637 227.312 214.643 227.396 214.679C227.479 214.715 227.549 214.778 227.591 214.859L229.435 218.547C229.478 218.641 229.5 218.742 229.5 218.845C229.499 218.948 229.476 219.05 229.432 219.143C229.388 219.236 229.324 219.318 229.245 219.384C229.166 219.45 229.074 219.498 228.974 219.524C227.186 220.016 225.987 220.317 223.75 220.969C222.207 221.417 220.633 222.149 219.109 222.635C218.052 222.973 215.568 222.985 214.284 222.985C212.384 222.985 211.96 220.981 212.778 220.889C214.837 220.661 215.114 220.766 216.251 220.194C218.111 219.381 219.798 218.216 221.217 216.764C221.485 216.459 221.828 216.23 222.213 216.101Z" fill="#263238"/>
    <path d="M186.457 84.2342L181.368 82.1013L179.272 87.744C181.358 88.0618 183.48 88.0618 185.566 87.744L186.457 84.2342Z" fill="#E58A7B"/>
    <path d="M177.581 81.9539L177.446 85.7034L179.272 87.7318L181.368 82.0891L177.581 81.9539Z" fill="#E58A7B"/>
    <path d="M223.553 206.335L219.149 208.035L221.1 213.087L225.504 211.387L223.553 206.335Z" fill="#CF6F64"/>
    <path d="M240.832 207.507H236.203L237.082 213.033H241.71L240.832 207.507Z" fill="#CF6F64"/>
    <path opacity="0.2" d="M208.764 93.4667C208.856 94.5793 208.961 95.7164 209.096 96.8843L227.499 90.9096C230.373 90.0579 232.871 88.2518 234.58 85.7894C234.654 84.1482 234.746 82.421 234.888 80.62C234.949 79.7471 235.023 78.8497 235.103 77.94C235.183 77.0303 235.293 76.0222 235.41 75.051L208.764 93.4667Z" fill="black"/>
    <path d="M214.775 73.3054L214.161 73.2316C214.523 70.1583 216.816 67.7364 219.232 67.7979V68.4126C217.117 68.3695 215.101 70.5516 214.775 73.3054Z" fill="white"/>
    <path d="M218.052 78.9788H217.947V78.3641C220.062 78.444 222.047 76.2373 222.373 73.4897L222.988 73.5635C222.662 76.5693 220.443 78.9788 218.052 78.9788Z" fill="white"/>
    <path d="M229.54 47.3722C228.673 50.7591 227.653 56.9611 229.884 59.217C229.884 59.217 228.323 62.653 222.035 62.653C216.288 62.653 219.367 59.217 219.367 59.217C223.19 58.3196 223.258 55.5289 222.754 52.8858L229.54 47.3722Z" fill="#E58A7B"/>
    <path d="M226.774 49.6219L222.76 52.8859C222.885 53.4932 222.956 54.1102 222.975 54.7299C224.149 55.8978 226.503 52.9412 226.743 51.4291C226.865 50.8338 226.875 50.2211 226.774 49.6219Z" fill="#CF6F64"/>
    <path d="M215.857 47.3292C216.137 47.8132 216.513 48.2345 216.962 48.5666C217.412 48.8987 217.925 49.1345 218.47 49.2592C219.945 49.585 220.683 48.2266 220.277 46.862C219.914 45.6327 218.703 43.9792 217.203 44.2619C216.882 44.3281 216.581 44.4703 216.326 44.6766C216.071 44.8829 215.87 45.1473 215.738 45.4477C215.606 45.748 215.548 46.0756 215.569 46.403C215.59 46.7303 215.689 47.0479 215.857 47.3292Z" fill="#CF6F64"/>
    <path d="M218.298 36.4924C215.999 37.5435 215.187 46.6776 218.076 48.0299C220.965 49.3822 222.649 34.4947 218.298 36.4924Z" fill="#263238"/>
    <path d="M230.241 42.2765C229.687 46.862 229.626 49.5604 227.167 51.9085C226.405 52.6877 225.443 53.2412 224.386 53.5079C223.33 53.7746 222.22 53.744 221.18 53.4197C220.139 53.0954 219.209 52.4899 218.491 51.67C217.773 50.8501 217.295 49.8478 217.111 48.7737C216.367 44.6553 217.394 37.8509 221.992 36.0253C222.958 35.5992 224.02 35.4392 225.069 35.562C226.118 35.6848 227.114 36.0858 227.956 36.7235C228.797 37.3612 229.453 38.2124 229.855 39.1888C230.256 40.1652 230.39 41.2313 230.241 42.2765Z" fill="#E58A7B"/>
    <path d="M222.686 38.8651C226.092 37.9984 228.593 37.4083 227.696 40.242C226.51 44.0284 225.084 47.6918 226.995 47.8578C228.163 47.9623 233.326 45.7741 232.669 43.5551C232.097 41.625 234.513 41.0964 234.943 40.119C236.535 36.5785 231.98 37.0457 232.792 34.8943C233.603 32.7429 229.104 29.2762 226.645 31.0034C222.643 33.794 215.777 33.751 219.386 29.1594C221.973 25.8832 217.357 26.5532 217.357 26.5532C217.357 26.5532 220.148 28.2066 215.452 30.7637C210.485 33.4928 215.04 40.8259 222.686 38.8651Z" fill="#263238"/>
    <path d="M232.048 47.3292C231.376 48.3019 230.366 48.9899 229.214 49.2592C227.696 49.585 227.112 48.2266 227.684 46.862C228.194 45.6327 229.595 43.9792 231.046 44.2619C232.497 44.5447 232.828 46.1244 232.048 47.3292Z" fill="#E58A7B"/>
    <path d="M209.551 100.505C209.551 100.505 205.395 137.693 205.07 151.806C204.738 166.484 219.152 212.283 219.152 212.283L226.528 209.21C226.528 209.21 217.923 167.363 219.152 152.949C220.455 137.232 225.84 100.529 225.84 100.529L209.551 100.505Z" fill="#4CAF4F"/>
    <path opacity="0.2" d="M219.877 110.715C216.564 117.587 218.795 131.177 220.59 139.229C221.273 133.544 222.084 127.372 222.852 121.662C222.779 112.884 222.096 106.104 219.877 110.715Z" fill="black"/>
    <path d="M226.202 206.776C226.239 206.776 227.075 209.124 227.075 209.124L218.568 212.701L217.228 210.206L226.202 206.776Z" fill="#4CAF4F"/>
    <path d="M218.334 100.505C218.334 100.505 221.512 135.873 223.614 149.119C225.926 163.632 234.986 211.964 234.986 211.964H243.462C243.462 211.964 238.385 164.806 237.426 150.435C236.381 134.847 234.304 100.505 234.304 100.505H218.334Z" fill="#4CAF4F"/>
    <path d="M243.591 209.757C243.628 209.757 243.874 212.124 243.874 212.124H234.556L233.892 209.407L243.591 209.757Z" fill="#4CAF4F"/>
    <path opacity="0.2" d="M240.346 206.954C240.327 206.954 240.308 206.948 240.293 206.935C240.279 206.923 240.269 206.906 240.266 206.887C240.217 206.456 235.638 163.859 234.777 150.951C233.843 136.949 231.962 105.889 231.943 105.576C231.942 105.566 231.944 105.555 231.947 105.546C231.95 105.536 231.956 105.527 231.963 105.52C231.97 105.512 231.978 105.506 231.987 105.502C231.997 105.498 232.007 105.496 232.017 105.496C232.037 105.496 232.057 105.503 232.072 105.517C232.086 105.531 232.095 105.549 232.097 105.57C232.097 105.883 233.996 136.918 234.931 150.945C235.791 163.853 240.371 206.419 240.414 206.88C240.415 206.891 240.415 206.901 240.412 206.911C240.41 206.921 240.405 206.93 240.399 206.938C240.393 206.947 240.385 206.953 240.375 206.958C240.366 206.963 240.356 206.966 240.346 206.966V206.954Z" fill="black"/>
    <path d="M223.209 43.555C223.209 43.93 222.975 44.2312 222.729 44.2312C222.483 44.2312 222.305 43.93 222.33 43.555C222.354 43.1801 222.563 42.8789 222.809 42.8789C223.055 42.8789 223.233 43.1862 223.209 43.555Z" fill="#263238"/>
    <path d="M218.992 43.555C218.992 43.93 218.752 44.2312 218.513 44.2312C218.273 44.2312 218.089 43.93 218.107 43.555C218.125 43.1801 218.347 42.8789 218.593 42.8789C218.838 42.8789 219.017 43.1862 218.992 43.555Z" fill="#263238"/>
    <path d="M220.32 43.7456C219.807 44.8906 219.145 45.9631 218.353 46.9358C218.968 47.5504 220.117 47.2677 220.117 47.2677L220.32 43.7456Z" fill="#DF5753"/>
    <path d="M220.43 48.8352C220.416 48.8352 220.402 48.8323 220.389 48.8267C220.376 48.821 220.364 48.8128 220.354 48.8024C220.344 48.792 220.337 48.7798 220.332 48.7664C220.327 48.753 220.325 48.7387 220.326 48.7245C220.328 48.6946 220.341 48.6665 220.362 48.6459C220.384 48.6253 220.413 48.6138 220.443 48.6139C220.913 48.6171 221.378 48.515 221.803 48.315C222.229 48.1151 222.604 47.8223 222.901 47.4583C222.923 47.4397 222.95 47.4294 222.978 47.4294C223.007 47.4294 223.034 47.4397 223.055 47.4583C223.075 47.4789 223.086 47.5064 223.086 47.5351C223.086 47.5638 223.075 47.5913 223.055 47.6119C222.737 47.9988 222.336 48.3095 221.881 48.5212C221.427 48.7328 220.931 48.8401 220.43 48.8352Z" fill="#263238"/>
    <path d="M223.959 42.4241C223.929 42.4392 223.897 42.4471 223.863 42.4471C223.83 42.4471 223.798 42.4392 223.768 42.4241C223.538 42.2755 223.277 42.183 223.004 42.1542C222.732 42.1253 222.457 42.1609 222.201 42.2581C222.176 42.2706 222.149 42.278 222.121 42.2798C222.093 42.2816 222.065 42.2778 222.039 42.2686C222.012 42.2594 221.988 42.2451 221.967 42.2264C221.947 42.2077 221.93 42.1851 221.918 42.1598C221.895 42.1051 221.895 42.0436 221.916 41.9885C221.938 41.9334 221.981 41.889 222.035 41.8648C222.356 41.7335 222.704 41.6817 223.05 41.7138C223.396 41.7459 223.728 41.861 224.02 42.0492C224.044 42.0652 224.064 42.0857 224.079 42.1096C224.095 42.1334 224.106 42.1602 224.111 42.1882C224.116 42.2162 224.115 42.245 224.109 42.2728C224.103 42.3006 224.092 42.327 224.075 42.3503C224.044 42.3856 224.004 42.4112 223.959 42.4241Z" fill="#263238"/>
    <path d="M217.363 41.1948C217.33 41.1868 217.301 41.1698 217.277 41.1456C217.257 41.1256 217.24 41.1017 217.229 41.0753C217.218 41.0489 217.213 41.0205 217.213 40.9919C217.213 40.9633 217.218 40.935 217.229 40.9086C217.24 40.8822 217.257 40.8583 217.277 40.8383C217.513 40.574 217.806 40.3678 218.135 40.2356C218.463 40.1033 218.817 40.0488 219.17 40.0761C219.199 40.0804 219.226 40.0905 219.25 40.1058C219.274 40.1211 219.295 40.1411 219.311 40.1647C219.327 40.1884 219.338 40.2151 219.344 40.2432C219.349 40.2712 219.349 40.3002 219.342 40.3281C219.329 40.385 219.296 40.4351 219.248 40.4691C219.201 40.503 219.142 40.5185 219.084 40.5125C218.805 40.4949 218.525 40.5411 218.267 40.6476C218.008 40.7541 217.777 40.9181 217.591 41.1272C217.563 41.1583 217.527 41.181 217.486 41.193C217.446 41.2049 217.404 41.2055 217.363 41.1948Z" fill="#263238"/>
    <path d="M240.487 66.3165L234.095 64.6139C234.095 64.6139 227.825 80.0484 225.606 81.0503C222.594 82.4272 214.966 87.1971 211.721 89.4529C211.542 90.2213 211.684 92.2558 212.089 92.8152C217.621 91.8071 228.212 87.7318 230.425 85.6604C235.472 80.9335 240.487 66.3165 240.487 66.3165Z" fill="#E58A7B"/>
    <path d="M236.025 218.498C235.713 218.522 235.402 218.438 235.146 218.258C235.067 218.187 235.007 218.096 234.974 217.994C234.941 217.893 234.934 217.785 234.955 217.68C234.959 217.615 234.981 217.552 235.017 217.498C235.054 217.444 235.105 217.4 235.164 217.373C235.681 217.109 237.125 218.024 237.291 218.129C237.309 218.14 237.323 218.157 237.331 218.177C237.339 218.197 237.34 218.219 237.334 218.24C237.329 218.261 237.318 218.281 237.303 218.297C237.288 218.313 237.269 218.325 237.248 218.332C236.847 218.43 236.437 218.486 236.025 218.498ZM235.41 217.539C235.364 217.528 235.315 217.528 235.269 217.539C235.245 217.551 235.226 217.569 235.213 217.592C235.199 217.615 235.193 217.642 235.195 217.668C235.179 217.739 235.181 217.814 235.203 217.884C235.224 217.954 235.264 218.018 235.318 218.067C235.558 218.283 236.16 218.307 236.953 218.154C236.481 217.843 235.949 217.633 235.392 217.539H235.41Z" fill="#4CAF4F"/>
    <path d="M237.217 218.332C237.201 218.337 237.184 218.337 237.168 218.332C236.707 218.074 235.84 217.059 235.969 216.543C235.989 216.461 236.035 216.388 236.101 216.336C236.167 216.284 236.248 216.255 236.332 216.254C236.415 216.243 236.498 216.25 236.578 216.275C236.658 216.299 236.731 216.34 236.793 216.396C237.303 216.832 237.334 218.172 237.334 218.24C237.337 218.26 237.333 218.28 237.323 218.298C237.313 218.316 237.298 218.33 237.279 218.338C237.258 218.342 237.237 218.34 237.217 218.332ZM236.394 216.457H236.351C236.209 216.457 236.191 216.537 236.185 216.568C236.111 216.869 236.658 217.637 237.113 218C237.111 217.481 236.95 216.974 236.652 216.549C236.58 216.487 236.488 216.454 236.394 216.457Z" fill="#4CAF4F"/>
    <path d="M219.705 217.729C219.329 217.861 218.92 217.861 218.543 217.729C218.458 217.683 218.386 217.616 218.333 217.534C218.28 217.453 218.249 217.359 218.242 217.262C218.234 217.201 218.242 217.14 218.265 217.083C218.287 217.026 218.324 216.975 218.371 216.936C218.863 216.494 220.873 216.936 221.1 217.023C221.122 217.028 221.141 217.041 221.155 217.059C221.168 217.077 221.175 217.099 221.174 217.121C221.175 217.144 221.169 217.167 221.157 217.186C221.145 217.206 221.128 217.222 221.107 217.231C220.654 217.436 220.185 217.602 219.705 217.729ZM218.703 216.998C218.633 217.012 218.567 217.044 218.513 217.09C218.493 217.105 218.478 217.125 218.469 217.148C218.461 217.17 218.459 217.195 218.463 217.219C218.467 217.284 218.488 217.346 218.522 217.401C218.556 217.456 218.604 217.501 218.66 217.533C218.986 217.705 219.742 217.57 220.719 217.158C220.061 216.992 219.379 216.938 218.703 216.998Z" fill="#4CAF4F"/>
    <path d="M221.088 217.232H221.039C220.424 217.121 219.195 216.414 219.158 215.885C219.158 215.762 219.213 215.59 219.508 215.492C219.608 215.457 219.714 215.441 219.82 215.448C219.925 215.454 220.028 215.482 220.123 215.529C220.787 215.855 221.137 217.035 221.156 217.09C221.16 217.109 221.16 217.128 221.154 217.146C221.149 217.165 221.139 217.181 221.125 217.195C221.116 217.21 221.103 217.222 221.088 217.232ZM219.631 215.676H219.57C219.379 215.744 219.379 215.824 219.379 215.849C219.379 216.168 220.271 216.752 220.891 216.949C220.748 216.455 220.446 216.023 220.031 215.719C219.908 215.657 219.765 215.641 219.631 215.676Z" fill="#4CAF4F"/>
    <path d="M212.243 89.0902L205.832 92.0407L205.088 93.8847L207.455 95.4767C207.455 95.4767 211.88 94.9972 213.14 92.1513L212.243 89.0902Z" fill="#E58A7B"/>
    <path d="M212.513 92.9196C212.37 91.6878 211.963 90.5012 211.321 89.4405L212.335 88.6783C213.098 89.9005 213.585 91.2746 213.761 92.7045L212.513 92.9196Z" fill="#263238"/>
    <path d="M213.608 89.9631C213.743 90.1762 213.81 90.426 213.798 90.6784C213.787 90.9307 213.698 91.1734 213.544 91.3734C213.389 91.5735 213.177 91.7211 212.936 91.7963C212.695 91.8715 212.436 91.8706 212.196 91.7937C211.955 91.7168 211.744 91.5676 211.591 91.3665C211.438 91.1653 211.351 90.922 211.342 90.6695C211.332 90.4171 211.4 90.1679 211.538 89.9557C211.675 89.7435 211.874 89.5787 212.108 89.4836C212.37 89.3498 212.675 89.325 212.956 89.4148C213.237 89.5046 213.471 89.7016 213.608 89.9631Z" fill="#263238"/>
    <path d="M201.498 94.4256L202.353 95.2861L208.106 92.8274L205.832 92.0406L201.498 94.4256Z" fill="#E58A7B"/>
    <path opacity="0.2" d="M226.202 206.776C226.239 206.776 227.075 209.124 227.075 209.124L218.568 212.701L217.228 210.206L226.202 206.776Z" fill="black"/>
    <path opacity="0.2" d="M243.591 209.757C243.628 209.757 243.874 212.124 243.874 212.124H234.556L233.892 209.407L243.591 209.757Z" fill="black"/>
    <path d="M242.153 64.5462C243.843 69.9984 237.236 77.4544 237.236 77.4544L228.108 73.7295C229.19 70.5782 230.437 67.4862 231.845 64.4663C234.648 58.4241 240.444 59.0449 242.153 64.5462Z" fill="#4CAF4F"/>
    <path opacity="0.2" d="M242.153 64.5462C243.843 69.9984 237.236 77.4544 237.236 77.4544L228.108 73.7295C229.19 70.5782 230.437 67.4862 231.845 64.4663C234.648 58.4241 240.444 59.0449 242.153 64.5462Z" fill="black"/>
    <path d="M151.452 9.92004H147.524V10.5532H151.452V9.92004Z" fill="#4CAF4F"/>
    <path d="M202.296 34.9782L201.821 45.5276L202.454 45.5561L202.929 35.0067L202.296 34.9782Z" fill="#4CAF4F"/>
    <path d="M201.074 12.7599H128.543L121.794 163.798H194.325L201.074 12.7599Z" fill="#4CAF4F"/>
    <path opacity="0.56" d="M198.911 14.8374H126.379L119.63 165.875H192.162L198.911 14.8374Z" fill="#FAFAFA"/>
    <path opacity="0.07" d="M196.747 16.9089H124.215L117.46 167.947H189.992L196.747 16.9089Z" fill="#4CAF4F"/>
    <path d="M188.492 82.7836H126.582L126.066 94.3395H187.976L188.492 82.7836Z" fill="white"/>
    <path d="M160.629 74.3502H126.957L126.729 79.5196H160.401L160.629 74.3502Z" fill="#4CAF4F"/>
    <path d="M187.097 113.972H125.187L124.67 125.528H186.58L187.097 113.972Z" fill="white"/>
    <path opacity="0.47" d="M175.744 141.135H134.112L133.491 154.983H175.123L175.744 141.135Z" fill="#4CAF4F"/>
    <path d="M172.959 157.135H131.327C131.309 157.139 131.29 157.139 131.272 157.135C131.266 157.117 131.266 157.097 131.272 157.079L131.887 143.225C131.887 143.215 131.888 143.206 131.892 143.197C131.896 143.189 131.902 143.181 131.908 143.175C131.915 143.168 131.924 143.163 131.933 143.16C131.941 143.157 131.951 143.156 131.96 143.157H173.592C173.6 143.153 173.608 143.151 173.617 143.151C173.625 143.151 173.634 143.153 173.641 143.157C173.646 143.164 173.648 143.173 173.648 143.182C173.648 143.19 173.646 143.199 173.641 143.206L173.039 157.092C173.032 157.106 173.02 157.118 173.006 157.126C172.992 157.133 172.975 157.137 172.959 157.135ZM131.401 156.987H172.885L173.5 143.28H132.016L131.401 156.987Z" fill="white"/>
    <path d="M153.357 105.539H125.562L125.334 110.715H153.124L153.357 105.539Z" fill="#4CAF4F"/>
    <path d="M174.951 45.4544C174.792 48.8176 173.596 52.049 171.527 54.7053C169.995 56.7117 168.025 58.3405 165.766 59.4668C163.507 60.593 161.02 61.1868 158.496 61.2024C156.456 61.218 154.435 60.8158 152.557 60.0206C150.678 59.2254 148.982 58.054 147.574 56.5787C146.165 55.1034 145.074 53.3553 144.366 51.4421C143.659 49.529 143.351 47.4912 143.461 45.4544C143.677 41.2279 145.5 37.2437 148.556 34.3164C151.612 31.3892 155.672 29.7401 159.903 29.7065C161.945 29.6874 163.968 30.0872 165.849 30.881C167.729 31.6748 169.427 32.8458 170.838 34.3217C172.248 35.7976 173.34 37.547 174.048 39.4618C174.755 41.3766 175.063 43.4162 174.951 45.4544Z" fill="white"/>
    <path d="M176.432 33.0011C176.392 33.8954 176.074 34.7548 175.522 35.4598C175.114 35.9927 174.59 36.4253 173.989 36.7247C173.388 37.024 172.727 37.1822 172.056 37.1871C171.405 37.191 170.764 37.0357 170.187 36.7346C169.611 36.4335 169.117 35.9958 168.749 35.4598C168.261 34.7355 168.02 33.8734 168.06 33.0011C168.12 31.879 168.605 30.8218 169.417 30.0451C170.229 29.2684 171.307 28.8307 172.431 28.8213C172.973 28.8164 173.51 28.9225 174.01 29.1331C174.509 29.3437 174.96 29.6544 175.335 30.046C175.71 30.4376 176.001 30.9018 176.189 31.4101C176.378 31.9183 176.461 32.4598 176.432 33.0011Z" fill="#4CAF4F"/>
    <path d="M133.251 88.5616C133.222 89.0569 133.005 89.5226 132.646 89.8648C132.287 90.207 131.811 90.4003 131.315 90.4056C131.075 90.4085 130.838 90.3622 130.617 90.2696C130.396 90.1769 130.196 90.04 130.03 89.8671C129.864 89.6943 129.736 89.4893 129.652 89.2647C129.569 89.0402 129.532 88.8009 129.545 88.5616C129.571 88.0653 129.787 87.5979 130.147 87.2551C130.506 86.9123 130.984 86.72 131.481 86.7176C131.72 86.7156 131.957 86.7626 132.178 86.8555C132.398 86.9484 132.598 87.0854 132.763 87.2581C132.929 87.4307 133.058 87.6354 133.142 87.8595C133.226 88.0837 133.263 88.3226 133.251 88.5616Z" fill="#263238"/>
    <path d="M141.537 88.5616C141.509 89.0574 141.293 89.5239 140.933 89.8664C140.574 90.2089 140.097 90.4017 139.601 90.4056C139.362 90.4076 139.125 90.3607 138.905 90.2677C138.684 90.1747 138.485 90.0376 138.32 89.8648C138.155 89.6921 138.027 89.4873 137.944 89.2632C137.86 89.0391 137.824 88.8003 137.837 88.5616C137.863 88.0663 138.078 87.5998 138.436 87.2571C138.795 86.9145 139.271 86.7215 139.767 86.7175C140.006 86.7147 140.244 86.761 140.465 86.8536C140.686 86.9462 140.885 87.0832 141.051 87.256C141.217 87.4289 141.346 87.6339 141.429 87.8585C141.513 88.083 141.55 88.3223 141.537 88.5616Z" fill="#263238"/>
    <path d="M149.829 88.5616C149.801 89.0574 149.585 89.5239 149.225 89.8664C148.866 90.2089 148.389 90.4017 147.893 90.4056C147.653 90.4075 147.416 90.3606 147.196 90.2677C146.975 90.1748 146.776 90.0378 146.61 89.8651C146.444 89.6925 146.316 89.4878 146.232 89.2637C146.148 89.0395 146.111 88.8006 146.122 88.5616C146.151 88.0657 146.366 87.5992 146.726 87.2567C147.086 86.9142 147.562 86.7214 148.059 86.7175C148.298 86.7147 148.536 86.761 148.757 86.8536C148.978 86.9462 149.177 87.0832 149.343 87.256C149.509 87.4289 149.638 87.6339 149.721 87.8585C149.805 88.083 149.842 88.3223 149.829 88.5616Z" fill="#263238"/>
    <path d="M131.856 119.75C131.826 120.246 131.61 120.711 131.251 121.053C130.891 121.396 130.416 121.589 129.92 121.594C129.68 121.596 129.443 121.549 129.223 121.456C129.002 121.363 128.803 121.226 128.637 121.054C128.471 120.881 128.343 120.676 128.259 120.452C128.175 120.228 128.138 119.989 128.149 119.75C128.177 119.254 128.393 118.788 128.753 118.445C129.112 118.103 129.589 117.91 130.086 117.906C130.325 117.904 130.562 117.951 130.783 118.044C131.003 118.137 131.202 118.274 131.368 118.447C131.534 118.619 131.663 118.824 131.746 119.048C131.83 119.272 131.868 119.511 131.856 119.75Z" fill="#263238"/>
    <path d="M140.142 119.75C140.114 120.245 139.899 120.711 139.54 121.053C139.182 121.395 138.707 121.589 138.212 121.594C137.972 121.597 137.734 121.551 137.513 121.458C137.292 121.366 137.093 121.229 136.927 121.056C136.761 120.883 136.632 120.678 136.549 120.453C136.465 120.229 136.429 119.989 136.441 119.75C136.469 119.254 136.685 118.788 137.045 118.445C137.404 118.103 137.881 117.91 138.378 117.906C138.617 117.904 138.854 117.951 139.074 118.044C139.294 118.137 139.493 118.274 139.658 118.447C139.823 118.62 139.952 118.824 140.035 119.049C140.118 119.273 140.154 119.511 140.142 119.75Z" fill="#263238"/>
    <path d="M148.452 119.75C148.424 120.246 148.208 120.713 147.849 121.055C147.489 121.398 147.012 121.59 146.516 121.594C146.277 121.595 146.04 121.548 145.82 121.454C145.6 121.361 145.401 121.224 145.235 121.052C145.07 120.879 144.941 120.675 144.857 120.451C144.773 120.228 144.735 119.989 144.746 119.75C144.775 119.255 144.991 118.789 145.351 118.447C145.71 118.105 146.186 117.911 146.682 117.906C146.921 117.903 147.159 117.95 147.38 118.042C147.601 118.135 147.8 118.272 147.966 118.445C148.132 118.617 148.261 118.823 148.345 119.047C148.428 119.272 148.465 119.511 148.452 119.75Z" fill="#263238"/>
    <path d="M156.726 119.75C156.696 120.246 156.48 120.711 156.121 121.053C155.761 121.396 155.286 121.589 154.789 121.594C154.55 121.595 154.314 121.548 154.093 121.455C153.873 121.361 153.674 121.224 153.509 121.052C153.343 120.879 153.214 120.675 153.13 120.451C153.046 120.228 153.008 119.989 153.019 119.75C153.049 119.255 153.265 118.789 153.624 118.447C153.983 118.105 154.459 117.912 154.955 117.906C155.195 117.904 155.432 117.951 155.652 118.044C155.873 118.137 156.072 118.274 156.238 118.447C156.404 118.619 156.532 118.824 156.616 119.048C156.7 119.272 156.737 119.511 156.726 119.75Z" fill="#263238"/>
    <path d="M165.048 119.75C165.019 120.246 164.803 120.711 164.443 121.053C164.084 121.396 163.608 121.589 163.112 121.594C162.873 121.597 162.635 121.551 162.414 121.458C162.193 121.366 161.993 121.229 161.827 121.056C161.662 120.883 161.533 120.678 161.449 120.453C161.366 120.229 161.329 119.989 161.342 119.75C161.37 119.254 161.586 118.788 161.945 118.445C162.305 118.103 162.781 117.91 163.278 117.906C163.517 117.904 163.755 117.951 163.975 118.044C164.196 118.137 164.395 118.274 164.561 118.447C164.726 118.619 164.855 118.824 164.939 119.048C165.023 119.272 165.06 119.511 165.048 119.75Z" fill="#263238"/>
    <path d="M163.79 44.6342C166.363 42.1183 166.5 38.0856 164.095 35.6269C161.691 33.1683 157.656 33.2147 155.083 35.7306C152.511 38.2465 152.374 42.2792 154.778 44.7378C157.183 47.1965 161.218 47.1501 163.79 44.6342Z" fill="#4CAF4F"/>
    <path d="M171.527 54.7052C169.995 56.7116 168.025 58.3405 165.766 59.4667C163.507 60.593 161.02 61.1867 158.496 61.2024C156.048 61.2231 153.633 60.6413 151.464 59.5083C149.294 58.3752 147.436 56.7257 146.055 54.7052C149.042 51.7302 153.769 49.7878 159.006 49.7878C164.243 49.7878 168.804 51.7302 171.527 54.7052Z" fill="#4CAF4F"/>
    <path opacity="0.1" d="M163.79 44.6342C166.363 42.1183 166.5 38.0856 164.095 35.6269C161.691 33.1683 157.656 33.2147 155.083 35.7306C152.511 38.2465 152.374 42.2792 154.778 44.7378C157.183 47.1965 161.218 47.1501 163.79 44.6342Z" fill="white"/>
    <path opacity="0.1" d="M171.527 54.7052C169.995 56.7116 168.025 58.3405 165.766 59.4667C163.507 60.593 161.02 61.1867 158.496 61.2024C156.048 61.2231 153.633 60.6413 151.464 59.5083C149.294 58.3752 147.436 56.7257 146.055 54.7052C149.042 51.7302 153.769 49.7878 159.006 49.7878C164.243 49.7878 168.804 51.7302 171.527 54.7052Z" fill="white"/>
    <path d="M81.0898 97.124C80.5059 98.4026 79.8912 99.8102 79.3564 101.175C78.8217 102.539 78.2746 103.947 77.8013 105.348C76.8349 108.11 76.0989 110.948 75.6008 113.831L75.4655 114.734C75.4526 114.889 75.4672 115.046 75.5086 115.195C75.6536 115.705 75.8821 116.187 76.1847 116.622C76.9741 117.747 77.8898 118.778 78.9139 119.695C79.9936 120.699 81.1262 121.645 82.3069 122.529C83.487 123.438 84.7287 124.323 85.9519 125.159L84.8024 127.317C81.8816 126.044 79.1093 124.455 76.5351 122.578C75.1617 121.576 73.9223 120.403 72.847 119.086C72.2097 118.303 71.7126 117.415 71.3779 116.462C71.1834 115.866 71.0838 115.244 71.0829 114.618C71.0829 114.47 71.0829 114.255 71.0829 114.151V113.849L71.1444 113.235C71.4968 110.032 72.1701 106.873 73.1544 103.806C73.6338 102.293 74.144 100.787 74.7279 99.3184C75.3119 97.8494 75.9142 96.411 76.658 94.9174L81.0898 97.124Z" fill="#E58A7B"/>
    <path d="M85.0852 124.778L89.4309 122.578L88.3061 127.348C88.3061 127.348 85.3249 128.184 83.9419 126.733L85.0852 124.778Z" fill="#E58A7B"/>
    <path d="M93.4079 123.358L92.2523 127.305L88.3061 127.348L89.4309 122.578L93.4079 123.358Z" fill="#E58A7B"/>
    <path d="M99.5423 74.1106C99.7748 74.9624 100.098 75.7868 100.507 76.5693C100.388 76.7048 100.234 76.8055 100.062 76.8607C99.8899 76.9159 99.7061 76.9235 99.5301 76.8828L99.5423 74.1106Z" fill="#DF5753"/>
    <path d="M99.4133 74.1475C99.6679 74.1475 99.8743 73.831 99.8743 73.4406C99.8743 73.0502 99.6679 72.7338 99.4133 72.7338C99.1587 72.7338 98.9523 73.0502 98.9523 73.4406C98.9523 73.831 99.1587 74.1475 99.4133 74.1475Z" fill="#263238"/>
    <path d="M99.278 72.7583L100.212 72.494C100.212 72.494 99.7575 73.2193 99.278 72.7583Z" fill="#263238"/>
    <path d="M87.5378 78.6223C88.0971 81.4806 88.6565 86.7237 86.6526 88.6354C86.6526 88.6354 87.4394 91.5366 92.7564 91.5366C98.6019 91.5366 95.547 88.6354 95.547 88.6354C92.3568 87.8732 92.4367 85.5067 92.9961 83.2816L87.5378 78.6223Z" fill="#E58A7B"/>
    <path d="M85.9826 72.1068C86.2777 76.8828 86.3023 78.9113 88.7118 81.3638C92.3445 85.0519 98.147 83.6504 99.2842 78.9051C100.311 74.6024 99.6592 67.5213 94.9815 65.622C93.9547 65.199 92.837 65.0449 91.7341 65.1744C90.6312 65.3038 89.5795 65.7125 88.6786 66.3617C87.7776 67.011 87.0572 67.8793 86.5855 68.8846C86.1137 69.8899 85.9062 70.9989 85.9826 72.1068Z" fill="#E58A7B"/>
    <path d="M86.4559 66.7344C84.0587 67.6073 80.8624 66.9557 82.1163 74.3502C83.444 82.1812 81.4033 84.7567 81.4033 84.7567C81.4033 84.7567 90.4943 86.6929 99.7759 84.6399C99.7759 84.6399 96.9423 79.6856 97.7352 76.0345C98.7494 71.4244 97.9503 69.7217 97.9503 69.7217C97.9503 69.7217 89.8243 65.5051 86.4559 66.7344Z" fill="#263238"/>
    <path d="M96.5981 74.5962C96.6005 75.5043 96.8606 76.3931 97.348 77.1594C97.9995 78.1551 98.7679 77.774 98.9584 76.7168C99.1305 75.7886 99.0014 74.1475 98.1716 73.5082C97.3418 72.8689 96.6103 73.4959 96.5981 74.5962Z" fill="#E58A7B"/>
    <path d="M84.3722 67.5397C83.6837 65.6035 86.9661 62.6223 93.9119 63.8517C100.858 65.081 101.159 70.8651 101.159 70.8651L99.7575 69.1932L99.819 70.9512L92.6826 72.3219L84.3722 67.5397Z" fill="#263238"/>
    <path d="M84.9623 88.9611C84.9213 88.6804 84.9915 88.3949 85.158 88.1652C85.3245 87.9356 85.574 87.7801 85.8535 87.7318C88.0172 87.3752 92.9346 86.6499 95.4056 86.9941C97.2496 87.2523 97.7291 88.3218 97.809 89.2008C97.8215 89.3547 97.8009 89.5095 97.7486 89.6548C97.6963 89.8001 97.6135 89.9325 97.5058 90.0432C97.3981 90.1538 97.2679 90.2401 97.1241 90.2963C96.9802 90.3524 96.826 90.3771 96.6718 90.3687L85.9888 89.8893C85.7369 89.8765 85.4972 89.7772 85.3101 89.6081C85.1231 89.439 85.0002 89.2104 84.9623 88.9611Z" fill="#4CAF4F"/>
    <path opacity="0.6" d="M84.9623 88.9611C84.9213 88.6804 84.9915 88.3949 85.158 88.1652C85.3245 87.9356 85.574 87.7801 85.8535 87.7318C88.0172 87.3752 92.9346 86.6499 95.4056 86.9941C97.2496 87.2523 97.7291 88.3218 97.809 89.2008C97.8215 89.3547 97.8009 89.5095 97.7486 89.6548C97.6963 89.8001 97.6135 89.9325 97.5058 90.0432C97.3981 90.1538 97.2679 90.2401 97.1241 90.2963C96.9802 90.3524 96.826 90.3771 96.6718 90.3687L85.9888 89.8893C85.7369 89.8765 85.4972 89.7772 85.3101 89.6081C85.1231 89.439 85.0002 89.2104 84.9623 88.9611Z" fill="black"/>
    <path d="M91.1397 196.345L95.1044 199.099L101.737 190.106L97.7721 187.358L91.1397 196.345Z" fill="#E58A7B"/>
    <path d="M81.895 196.167L86.081 198.552L91.9511 189.043L87.7652 186.658L81.895 196.167Z" fill="#E58A7B"/>
    <path d="M101.731 190.106L98.313 194.741L94.3484 191.993L97.7659 187.358L101.731 190.106Z" fill="#CF6F64"/>
    <path d="M87.759 186.658L91.9511 189.049L88.9269 193.948L84.7348 191.557L87.759 186.658Z" fill="#CF6F64"/>
    <path d="M94.4836 118.982C94.4836 118.982 109.961 138.485 107.054 157.141C104.712 172.207 91.1275 192.608 91.1275 192.608L84.741 189.436C89.2425 180.416 93.0841 171.081 96.2354 161.505C97.2072 158.532 97.4908 155.377 97.0649 152.279C96.639 149.18 95.5146 146.218 93.7767 143.618C85.9334 132.167 73.3695 138.983 81.8213 118.982H94.4836Z" fill="#4CAF4F"/>
    <path opacity="0.6" d="M94.4836 118.982C94.4836 118.982 109.961 138.485 107.054 157.141C104.712 172.207 91.1275 192.608 91.1275 192.608L84.741 189.436C89.2425 180.416 93.0841 171.081 96.2354 161.505C97.2072 158.532 97.4908 155.377 97.0649 152.279C96.639 149.18 95.5146 146.218 93.7767 143.618C85.9334 132.167 73.3695 138.983 81.8213 118.982H94.4836Z" fill="black"/>
    <path opacity="0.4" d="M102.075 131.509L99.8251 129.271C99.8251 129.45 104.183 156.354 105.406 163.915C106.128 161.706 106.681 159.446 107.06 157.153C108.498 148.001 105.492 138.651 102.075 131.509Z" fill="black"/>
    <path d="M101.393 118.982C101.393 118.982 120.029 143.495 120.558 158.192C120.995 170.485 100.274 194.304 100.274 194.304L94.25 190.407C94.25 190.407 106.378 173.491 109.432 159.673C108.252 145.978 83.2965 118.982 83.2965 118.982H101.393Z" fill="#4CAF4F"/>
    <path opacity="0.6" d="M101.393 118.982C101.393 118.982 120.029 143.495 120.558 158.192C120.995 170.485 100.274 194.304 100.274 194.304L94.25 190.407C94.25 190.407 106.378 173.491 109.432 159.673C108.252 145.978 83.2965 118.982 83.2965 118.982H101.393Z" fill="black"/>
    <path d="M78.3361 89.7295C76.3445 90.2028 74.4329 97.4436 74.4329 97.4436L82.2208 102.644C82.2208 102.644 84.8147 96.915 83.905 94.4071C82.9646 91.7948 80.8378 89.1332 78.3361 89.7295Z" fill="#4CAF4F"/>
    <path opacity="0.2" d="M79.8605 94.3949L79.3195 100.708L82.2147 102.65C83.014 100.85 83.6059 98.9655 83.9788 97.0318L79.8605 94.3949Z" fill="black"/>
    <path d="M103.698 89.8708C103.698 89.8708 105.996 90.676 101.393 118.976H81.809C82.1409 110.985 82.147 106.067 78.3361 89.7294C81.0782 89.1643 83.8576 88.7987 86.6526 88.6353C89.6136 88.423 92.586 88.423 95.547 88.6353C99.3702 88.9857 103.698 89.8708 103.698 89.8708Z" fill="#4CAF4F"/>
    <path d="M105.689 94.3948C106.132 95.6242 106.599 96.9457 107.091 98.2181C107.582 99.4905 108.049 100.8 108.547 102.091L110.053 105.951L110.434 106.916L110.631 107.395L110.723 107.635C110.723 107.678 110.723 107.678 110.723 107.672C110.611 107.513 110.464 107.383 110.293 107.291C110.05 107.148 109.776 107.065 109.494 107.051C109.26 107.044 109.027 107.088 108.812 107.18C108.529 107.309 108.529 107.364 108.535 107.358C108.586 107.317 108.632 107.27 108.67 107.217C109.011 106.77 109.305 106.29 109.549 105.785C109.838 105.219 110.115 104.617 110.391 104.008C110.932 102.779 111.43 101.507 111.928 100.222C112.426 98.9373 112.899 97.6403 113.36 96.331L114.762 92.4094L117.128 93.0241C116.661 95.827 116.059 98.5562 115.333 101.334C114.983 102.718 114.571 104.088 114.104 105.471C113.87 106.166 113.612 106.854 113.317 107.561C113.01 108.328 112.631 109.065 112.186 109.762C112.023 109.996 111.842 110.218 111.645 110.426C111.331 110.765 110.95 111.035 110.527 111.218C110.15 111.38 109.743 111.456 109.334 111.44C108.876 111.423 108.43 111.289 108.037 111.053C107.574 110.764 107.19 110.364 106.918 109.891C106.826 109.731 106.746 109.571 106.691 109.454L106.574 109.221L106.341 108.741L105.873 107.789C105.259 106.51 104.644 105.219 104.109 103.922C103.575 102.625 103.009 101.31 102.48 99.9884C101.952 98.6668 101.479 97.3453 101.03 95.9192L105.689 94.3948Z" fill="#E58A7B"/>
    <path d="M103.698 89.8708C106.052 90.4302 108.701 97.3883 108.701 97.3883L101.7 103.345C101.7 103.345 97.1697 95.7594 98.0856 93.2577C99.0383 90.6515 100.624 89.1394 103.698 89.8708Z" fill="#4CAF4F"/>
    <path d="M115.874 90.2089L118.333 88.1559L120.042 90.8174L118.782 93.0364C118.782 93.0364 116.778 94.8804 115.008 93.94C114.727 93.3084 114.659 92.6025 114.816 91.9292C114.972 91.2559 115.344 90.6519 115.874 90.2089Z" fill="#E58A7B"/>
    <path d="M122.771 88.162L122.587 88.832L118.696 89.4836L118.315 88.1559L122.771 88.162Z" fill="#E58A7B"/>
    <path d="M100.753 194.618L93.7337 190.081L94.9938 187.893L102.88 192.743L100.753 194.618Z" fill="#4CAF4F"/>
    <path d="M88.8286 198.232C88.2127 198.157 87.6209 197.947 87.0952 197.617C87.0735 197.61 87.0547 197.596 87.0414 197.577C87.0281 197.558 87.0209 197.536 87.0209 197.513C87.0209 197.49 87.0281 197.467 87.0414 197.449C87.0547 197.43 87.0735 197.416 87.0952 197.408C87.2857 197.347 88.9392 196.837 89.4187 197.23C89.4726 197.275 89.5135 197.333 89.5373 197.399C89.561 197.465 89.5668 197.536 89.5539 197.605C89.5453 197.716 89.5087 197.822 89.4474 197.915C89.386 198.007 89.3021 198.083 89.2035 198.134C89.0884 198.196 88.9597 198.23 88.8286 198.232ZM87.4455 197.556C88.2139 197.949 88.8286 198.09 89.1236 197.943C89.1879 197.907 89.2419 197.856 89.2807 197.794C89.3194 197.731 89.3415 197.66 89.3449 197.586C89.3449 197.488 89.3449 197.445 89.2896 197.42C89.0314 197.212 88.1094 197.371 87.4333 197.556H87.4455Z" fill="#263238"/>
    <path d="M87.1382 197.66C87.1058 197.66 87.0749 197.647 87.0522 197.623C87.043 197.606 87.0382 197.587 87.0382 197.568C87.0382 197.549 87.043 197.53 87.0522 197.513C87.0522 197.457 87.4517 196.124 88.0787 195.822C88.1587 195.786 88.2457 195.767 88.3338 195.767C88.4218 195.767 88.5088 195.786 88.5888 195.822C88.6752 195.85 88.7499 195.905 88.8011 195.98C88.8524 196.054 88.8772 196.144 88.8716 196.234C88.8286 196.787 87.7037 197.55 87.1874 197.679L87.1382 197.66ZM88.3307 195.982C88.2709 195.984 88.2122 195.999 88.1586 196.025C87.7775 196.21 87.464 196.929 87.3103 197.365C87.8512 197.138 88.595 196.535 88.6196 196.197C88.6196 196.142 88.6196 196.074 88.4782 196.013C88.4322 195.988 88.3823 195.972 88.3307 195.964V195.982Z" fill="#263238"/>
    <path d="M97.6 200.887C96.9054 200.887 95.9404 199.996 95.4117 199.449C95.3982 199.43 95.391 199.408 95.391 199.384C95.391 199.361 95.3982 199.339 95.4117 199.32C95.4239 199.3 95.4411 199.284 95.4617 199.273C95.4822 199.262 95.5053 199.257 95.5285 199.258C95.7744 199.258 97.9073 199.578 98.2085 200.18C98.2404 200.234 98.2572 200.296 98.2572 200.359C98.2572 200.421 98.2404 200.483 98.2085 200.537C98.1633 200.631 98.0951 200.712 98.0101 200.772C97.9252 200.832 97.8264 200.87 97.7229 200.881L97.6 200.887ZM95.8174 199.535C96.5919 200.285 97.2742 200.703 97.6614 200.654C97.7293 200.645 97.7939 200.62 97.8496 200.58C97.9053 200.54 97.9505 200.488 97.9811 200.426C97.9948 200.405 98.0021 200.381 98.0021 200.356C98.0021 200.331 97.9948 200.306 97.9811 200.285C97.8213 199.953 96.6841 199.67 95.8174 199.535Z" fill="#263238"/>
    <path d="M95.8851 199.504C95.7471 199.508 95.6091 199.498 95.4732 199.474C95.4542 199.471 95.4363 199.463 95.4212 199.451C95.4062 199.439 95.3944 199.424 95.3872 199.406C95.378 199.388 95.3732 199.368 95.3732 199.348C95.3732 199.327 95.378 199.307 95.3872 199.289C95.424 199.246 96.2539 198.244 97.0406 198.177C97.2634 198.159 97.484 198.23 97.6553 198.373C97.895 198.582 97.8828 198.767 97.8213 198.884C97.6676 199.301 96.6042 199.504 95.8851 199.504ZM95.7252 199.277C96.4137 199.314 97.5139 199.086 97.6553 198.785C97.6553 198.785 97.7045 198.687 97.5447 198.552C97.4811 198.496 97.4068 198.455 97.3264 198.429C97.2461 198.404 97.1613 198.395 97.0775 198.404C96.5475 198.552 96.0756 198.859 95.7252 199.283V199.277Z" fill="#263238"/>
    <path d="M87.3042 196.996L82.0917 195.521C82.0019 195.494 81.9051 195.501 81.8201 195.541C81.735 195.58 81.6676 195.65 81.6307 195.736L79.8727 199.689C79.8315 199.79 79.8121 199.899 79.8159 200.008C79.8197 200.117 79.8465 200.225 79.8947 200.323C79.9429 200.421 80.0113 200.508 80.0955 200.577C80.1796 200.647 80.2776 200.698 80.3829 200.728C82.2269 201.207 83.1121 201.342 85.4048 202C86.8186 202.393 88.8347 203.125 90.7832 203.678C92.7317 204.231 93.3833 202.332 92.6272 201.926C89.2097 200.119 88.9392 198.853 88.0049 197.501C87.8376 197.256 87.5896 197.077 87.3042 196.996Z" fill="#4CAF4F"/>
    <path d="M95.5531 198.73L91.1029 195.656C91.0274 195.601 90.9344 195.576 90.8415 195.585C90.7486 195.594 90.6623 195.637 90.5988 195.706L87.6484 198.877C87.5765 198.959 87.5229 199.056 87.4911 199.16C87.4593 199.264 87.4501 199.374 87.464 199.482C87.478 199.59 87.5148 199.694 87.572 199.787C87.6292 199.88 87.7056 199.96 87.7959 200.021C89.3633 201.072 90.1747 201.496 92.1355 202.854C93.3649 203.69 95.7437 205.547 97.4033 206.702C99.0629 207.858 100.298 206.272 99.7083 205.645C97.0652 202.824 96.4874 201.053 96.051 199.449C95.9752 199.158 95.7989 198.903 95.5531 198.73Z" fill="#4CAF4F"/>
    <path d="M91.945 193.013L83.9235 189.024L84.7533 186.848L93.3218 191.053L91.945 193.013Z" fill="#4CAF4F"/>
    <path d="M81.5139 117.826L80.8378 119.597C80.7702 119.732 80.93 119.873 81.1574 119.873H101.491C101.669 119.873 101.817 119.787 101.829 119.676L102.001 117.918C102.001 117.802 101.86 117.697 101.669 117.697H81.8335C81.7738 117.692 81.7136 117.7 81.658 117.723C81.6024 117.745 81.553 117.781 81.5139 117.826Z" fill="#4CAF4F"/>
    <path opacity="0.4" d="M81.5139 117.826L80.8378 119.597C80.7702 119.732 80.93 119.873 81.1574 119.873H101.491C101.669 119.873 101.817 119.787 101.829 119.676L102.001 117.918C102.001 117.802 101.86 117.697 101.669 117.697H81.8335C81.7738 117.692 81.7136 117.7 81.658 117.723C81.6024 117.745 81.553 117.781 81.5139 117.826Z" fill="white"/>
    <path d="M84.7164 120.045H84.1816C84.0771 120.045 83.9972 119.99 84.0034 119.922L84.2554 117.642C84.2554 117.58 84.3537 117.525 84.4582 117.525H84.993C85.0975 117.525 85.1774 117.58 85.1712 117.642L84.9192 119.922C84.9131 119.99 84.8209 120.045 84.7164 120.045Z" fill="#4CAF4F"/>
    <path d="M97.2558 120.045H96.7271C96.6227 120.045 96.5427 119.99 96.5489 119.922L96.7948 117.642C96.7948 117.58 96.8993 117.525 97.0037 117.525H97.5324C97.6369 117.525 97.7229 117.58 97.7106 117.642L97.4648 119.922C97.434 119.99 97.3664 120.045 97.2558 120.045Z" fill="#4CAF4F"/>
    <g style="mix-blend-mode:multiply">
        <path d="M84.2492 224.141C93.3438 224.141 100.716 223.607 100.716 222.948C100.716 222.29 93.3438 221.756 84.2492 221.756C75.1547 221.756 67.7821 222.29 67.7821 222.948C67.7821 223.607 75.1547 224.141 84.2492 224.141Z" fill="#F5F5F5"/>
    </g>
    <path d="M94.2807 221.264C91.3672 220.416 88.134 219.328 86.1793 218.19C86.124 218.154 86.0625 218.135 86.0072 218.104V204.913H91.9019C92.3494 204.887 92.7699 204.691 93.0773 204.364C93.3848 204.038 93.556 203.607 93.556 203.159C93.556 202.71 93.3848 202.279 93.0773 201.953C92.7699 201.627 92.3494 201.43 91.9019 201.404H86.0379V141.276H82.4974V201.404H76.6396C76.4004 201.389 76.1608 201.424 75.9356 201.506C75.7104 201.588 75.5042 201.715 75.3299 201.879C75.1555 202.044 75.0166 202.242 74.9216 202.462C74.8267 202.682 74.7777 202.919 74.7777 203.159C74.7777 203.398 74.8267 203.635 74.9216 203.855C75.0166 204.075 75.1555 204.273 75.3299 204.438C75.5042 204.602 75.7104 204.729 75.9356 204.811C76.1608 204.893 76.4004 204.928 76.6396 204.913H82.4974V218.086C82.4421 218.086 82.3868 218.135 82.3314 218.172C80.346 219.328 77.1374 220.416 74.2239 221.245C74.0271 221.305 73.8581 221.433 73.7475 221.606C73.6369 221.78 73.592 221.987 73.621 222.19C73.65 222.394 73.7509 222.58 73.9054 222.716C74.06 222.852 74.258 222.927 74.4636 222.93H94.041C94.2375 222.916 94.4234 222.836 94.5678 222.702C94.7122 222.568 94.8062 222.389 94.8343 222.194C94.8623 221.999 94.8227 221.8 94.7219 221.631C94.6212 221.462 94.4655 221.332 94.2807 221.264Z" fill="#E0E0E0"/>
    <path d="M95.1843 135.154H73.3265C71.568 135.154 70.1424 136.579 70.1424 138.338V144.835C70.1424 146.594 71.568 148.019 73.3265 148.019H95.1843C96.9428 148.019 98.3683 146.594 98.3683 144.835V138.338C98.3683 136.579 96.9428 135.154 95.1843 135.154Z" fill="#4CAF4F"/>
    <path d="M73.1236 148.025V149.144C73.1236 150.066 74.1255 150.816 75.3549 150.816H93.1805C94.4098 150.816 95.4117 150.066 95.4117 149.144V148.025H73.1236Z" fill="#4CAF4F"/>
    <path opacity="0.3" d="M73.1236 148.025V149.144C73.1236 150.066 74.1255 150.816 75.3549 150.816H93.1805C94.4098 150.816 95.4117 150.066 95.4117 149.144V148.025H73.1236Z" fill="white"/>
</svg>
