<svg width="12" height="13" viewBox="0 0 12 13" fill="none" xmlns="http://www.w3.org/2000/svg">
    <path fill-rule="evenodd" clip-rule="evenodd" d="M11.4608 0.76669C11.6026 0.908499 11.6506 1.11901 11.5844 1.3083L7.93002 11.7493C7.8593 11.9514 7.67243 12.0898 7.45855 12.0985C7.24468 12.1072 7.04715 11.9845 6.96021 11.7889L4.95355 7.27392L0.438569 5.26726C0.242967 5.18032 0.120251 4.98279 0.128977 4.76892C0.137702 4.55505 0.2761 4.36817 0.478135 4.29746L10.9192 0.643093C11.1085 0.576842 11.319 0.62488 11.4608 0.76669ZM5.97174 6.99403L7.37953 10.1616L9.84316 3.1226L5.97174 6.99403ZM9.10487 2.38431L2.06592 4.84794L5.23345 6.25573L9.10487 2.38431Z" fill="white"/>
</svg>