<svg width="12" height="10" viewBox="0 0 12 10" fill="none" xmlns="http://www.w3.org/2000/svg">
    <path fill-rule="evenodd" clip-rule="evenodd" d="M5.47771 2.6897L5.50108 3.07507L5.11157 3.02788C3.69376 2.84699 2.45512 2.23355 1.40344 1.20327L0.889291 0.692069L0.756858 1.06957C0.476412 1.91109 0.655586 2.7998 1.23985 3.39752C1.55146 3.72783 1.48134 3.77502 0.943822 3.57841C0.756858 3.51549 0.593264 3.4683 0.577684 3.49189C0.523153 3.54695 0.710117 4.26263 0.85813 4.54576C1.06068 4.93899 1.47355 5.32436 1.92539 5.55244L2.3071 5.73333L1.85527 5.74119C1.41902 5.74119 1.40344 5.74906 1.45018 5.91422C1.60599 6.42542 2.22141 6.96808 2.90695 7.20402L3.38994 7.36918L2.96927 7.62085C2.34605 7.98262 1.61378 8.18711 0.881501 8.20284C0.530943 8.2107 0.242706 8.24216 0.242706 8.26575C0.242706 8.3444 1.19311 8.78482 1.74621 8.95784C3.40552 9.46905 5.37643 9.24884 6.85657 8.37586C7.90824 7.75455 8.95992 6.51979 9.4507 5.32436C9.71556 4.68733 9.98043 3.52335 9.98043 2.96496C9.98043 2.60319 10.0038 2.556 10.4401 2.12344C10.6971 1.87177 10.9386 1.59651 10.9854 1.51786C11.0633 1.36843 11.0555 1.36843 10.6582 1.50213C9.99601 1.73807 9.90253 1.70661 10.2297 1.3527C10.4712 1.10103 10.7594 0.644881 10.7594 0.511181C10.7594 0.487587 10.6426 0.526911 10.5102 0.597693C10.3699 0.67634 10.0583 0.79431 9.82463 0.865092L9.40396 0.998791L9.02224 0.739257C8.8119 0.597693 8.51588 0.440399 8.36007 0.393211C7.96277 0.283106 7.35514 0.298835 6.99679 0.42467C6.02302 0.77858 5.4076 1.69088 5.47771 2.6897Z" fill="white"/>
</svg>